<svg xmlns="http://www.w3.org/2000/svg" xmlns:xlink="http://www.w3.org/1999/xlink" width="1080" zoomAndPan="magnify" viewBox="0 0 810 809.999993" height="1080" preserveAspectRatio="xMidYMid meet" version="1.0"><path fill="#5e3528" d="M 674.089844 459.667969 C 673.25 443.6875 670.804688 426.113281 663.652344 411.632812 C 658.726562 407.257812 651.9375 404.710938 646.050781 401.839844 C 628.484375 394.214844 610.234375 388.0625 592.050781 382.113281 C 585.652344 380.386719 576.160156 377.925781 570.308594 382.027344 C 563.878906 385.925781 557.992188 391.328125 552.46875 396.421875 C 545.0625 374.675781 529.886719 355.171875 514.835938 338.113281 C 502.484375 324.234375 489.65625 312.128906 480.007812 295.960938 C 471.0625 280.507812 463.195312 264.386719 456.230469 247.925781 C 451.628906 237.171875 445.558594 226.984375 438.835938 217.449219 C 431.703125 207.652344 422.566406 199.652344 410.183594 197.839844 C 390.273438 194.816406 371.386719 210.746094 365.742188 229.035156 C 359.398438 248.097656 361.054688 269.960938 367.675781 288.730469 C 371.300781 299.34375 377.253906 308.472656 383.191406 317.875 C 359.515625 301.191406 340.871094 280.695312 320.773438 260.214844 C 308.867188 248.644531 296.363281 235.773438 282.4375 226.710938 C 273.476562 221.035156 263.726562 216.746094 252.847656 218.199219 C 242.019531 219.839844 231.121094 226.0625 225.289062 235.5 C 219.507812 245.121094 218.328125 256.59375 220.859375 267.445312 C 223.613281 280.679688 230.402344 292.285156 239.402344 302.234375 C 248.28125 311.925781 257.976562 320.933594 267.867188 329.582031 C 256.269531 322.609375 244.6875 315.652344 233.347656 308.265625 C 221.167969 300.574219 207.894531 291.617188 193.867188 287.925781 C 182.476562 284.761719 170.089844 287.070312 160.324219 293.636719 C 142.15625 305.992188 134.972656 330.710938 142.585938 351.105469 C 147.355469 362.507812 158.714844 371.445312 169.082031 377.617188 C 192.464844 391.359375 219.011719 401.035156 244.207031 411.003906 C 222.894531 408.011719 202.503906 405.71875 181.003906 408.949219 C 171.304688 410.027344 162.035156 413.34375 154.097656 419.070312 C 143.011719 426.847656 135.640625 440.746094 136.769531 454.386719 C 137.195312 462.863281 141.386719 470.371094 147.492188 476.097656 C 157.363281 485.546875 171.066406 490.078125 184.441406 491.410156 C 203.546875 493.136719 222.519531 495.90625 241.574219 498.097656 C 227.496094 500.097656 213.914062 502.042969 201.152344 508.796875 C 192.070312 513.429688 184.355469 520.8125 178.882812 529.359375 C 170.210938 543.085938 172.894531 562.761719 185.367188 573.292969 C 192.875 579.753906 202.164062 581.460938 211.792969 581.875 C 221.5625 582.367188 231.226562 581.53125 240.925781 580.523438 C 253.820312 579.273438 265.488281 581.71875 278.488281 582.0625 C 301.957031 582.949219 325.253906 585.617188 348.65625 587.394531 C 369.320312 589.546875 391.246094 592.558594 412.015625 591.050781 C 422.535156 590.898438 432.933594 590.503906 443.230469 588.148438 C 455.496094 585.378906 469.4375 582.421875 480.164062 575.652344 C 487.3125 570.199219 493.8125 563.875 500.773438 558.199219 C 499.695312 565.875 497.988281 572.761719 499.492188 580.558594 C 500.722656 588.710938 504.878906 596.300781 511.925781 600.796875 C 521.898438 607.34375 534.148438 611.410156 545.351562 615.34375 C 556.09375 618.761719 567.382812 621.546875 578.503906 623.394531 C 591.949219 625.957031 605.597656 618.523438 615.65625 610.230469 C 634.761719 594.214844 648.566406 570.914062 657.90625 548.0625 C 668.835938 520.128906 674.960938 489.703125 674.089844 459.667969 Z M 674.089844 459.667969 " fill-opacity="1" fill-rule="nonzero"/><path fill="#ffe3d4" d="M 556.523438 429.789062 C 555.359375 441.222656 551.425781 451.34375 546.464844 461.582031 C 548.207031 436.148438 544 411.003906 530.539062 389.085938 C 523.421875 378.164062 515.65625 367.632812 507.085938 357.804688 C 494.839844 343.566406 481.257812 331.328125 470.277344 315.925781 C 460.097656 302.164062 453.546875 286.847656 445.457031 272.027344 C 441.488281 271.328125 437.296875 271.667969 433.414062 270.660156 C 428.332031 267.703125 424.792969 261.617188 421.765625 256.746094 C 415.023438 244.523438 409.550781 230.917969 411.3125 216.695312 C 403.085938 215.738281 397.664062 216.679688 391.164062 221.976562 C 380.625 231.34375 378.179688 246.25 378.144531 259.667969 C 377.957031 282.269531 387.808594 302.78125 399.9375 321.277344 C 404.195312 327.257812 409.125 334.59375 416.152344 337.464844 C 422.5 340.285156 428.878906 342.847656 434.796875 346.523438 C 435.800781 346.367188 436.90625 346.203125 438.039062 345.996094 C 436.90625 346.203125 435.800781 346.367188 434.796875 346.523438 C 421.574219 346.933594 408.558594 345.464844 396.363281 340.097656 C 376.46875 331.515625 358.164062 318.265625 341.863281 304.078125 C 319.335938 284.0625 298.671875 259.207031 273.648438 242.269531 C 280.148438 249.601562 289.128906 258.097656 290.070312 268.40625 C 290.566406 276.730469 284.21875 281.925781 277.890625 286.027344 C 273.03125 288.351562 267.113281 290.523438 261.777344 288.695312 C 255.996094 286.695312 250.792969 282.625 245.335938 279.804688 C 251.496094 291.226562 261.914062 300.761719 270.910156 310.046875 C 283.789062 323.363281 297.765625 335.636719 311.417969 348.199219 C 320.464844 356.59375 330.78125 363.703125 339.179688 372.675781 L 335.089844 372.710938 C 324.707031 369.070312 314.972656 364.078125 304.832031 359.910156 C 277.546875 347.992188 250.382812 335.222656 224.484375 320.523438 C 210.957031 313.121094 198.160156 305.140625 182.40625 304.046875 C 193.695312 309.890625 204.386719 313.636719 210.902344 325.53125 C 215.949219 334.027344 210.785156 344.265625 206.542969 351.960938 C 202.28125 356.128906 197.527344 359.308594 191.316406 359.222656 C 180.40625 358.882812 169.816406 352.128906 160.511719 347.019531 C 165.453125 352.949219 171.117188 358.097656 177.753906 362.113281 C 199.476562 375.667969 225.050781 384.933594 248.570312 395.617188 C 267.695312 404.0625 286.699219 412.625 304.761719 423.222656 C 313.332031 428.179688 322.363281 433.003906 330.148438 439 L 326.402344 438.832031 C 307.945312 433.378906 287.84375 432.128906 268.976562 428.285156 C 256.351562 425.71875 243.882812 424.371094 230.984375 424.097656 C 213.023438 422.8125 195.320312 422.882812 177.753906 427.464844 C 169.902344 429.582031 163.847656 434.4375 158.527344 440.402344 C 172.554688 433.890625 188.273438 432.933594 202.898438 438.027344 C 207.226562 439.738281 212.511719 442.386719 214.085938 447.121094 C 215.335938 451.480469 215.386719 456.265625 215.539062 460.78125 C 213.144531 466.179688 210.324219 470.863281 206.746094 475.582031 C 217.660156 477.582031 228.488281 479.769531 239.539062 481.019531 C 262.699219 483.6875 285.535156 489.328125 307.328125 497.601562 C 316.292969 501.019531 324.84375 505.292969 332.285156 511.410156 C 332.65625 511.59375 333.035156 511.777344 333.414062 511.960938 C 333.035156 511.777344 332.65625 511.59375 332.285156 511.410156 C 315.332031 507.925781 297.492188 507.683594 280.265625 508.695312 C 262.785156 509.15625 245.40625 511.359375 228.488281 515.804688 C 215.675781 519.601562 203.925781 525.019531 196.191406 536.402344 C 193.765625 540.078125 192.121094 544.078125 192.429688 548.558594 C 192.789062 552.589844 195.199219 556.367188 197.152344 559.839844 C 197.988281 554.523438 198.621094 549.171875 199.375 543.839844 C 201.769531 540.027344 204.078125 536.609375 208.492188 534.984375 C 220.054688 530.214844 235.140625 529.445312 245.78125 536.863281 C 250.742188 540.316406 251.71875 545.222656 253.53125 550.609375 C 252.058594 555.683594 250.265625 560.503906 248.144531 565.34375 C 287.605469 564.472656 326.964844 566.746094 366.222656 570.503906 C 385.84375 572.777344 405.683594 572.695312 425.40625 571.632812 C 440.460938 570.230469 455.460938 566.589844 469.832031 561.941406 C 487.757812 555.71875 501.425781 544.199219 514.765625 531.171875 C 513.636719 536.25 512.320312 541.273438 510.96875 546.300781 C 520.875 548.523438 530.351562 551.753906 539.773438 555.480469 C 548.242188 541.207031 555.171875 526.660156 560.96875 511.121094 C 570.257812 487.855469 576.773438 463.277344 579.273438 438.316406 C 571.285156 436.453125 563.960938 433.105469 556.523438 429.789062 Z M 390.203125 254.132812 C 389.859375 252.605469 389.582031 251.085938 389.367188 249.570312 C 389.582031 251.085938 389.859375 252.605469 390.203125 254.132812 C 390.351562 254.964844 390.515625 255.792969 390.699219 256.613281 C 390.515625 255.792969 390.351562 254.964844 390.203125 254.132812 Z M 421.925781 303.808594 C 423.574219 305.371094 425.257812 306.898438 426.953125 308.410156 C 425.257812 306.898438 423.574219 305.371094 421.925781 303.808594 Z M 341.8125 514.78125 C 340.988281 514.691406 340.164062 514.523438 339.351562 514.304688 C 340.164062 514.523438 340.988281 514.691406 341.8125 514.78125 C 342.582031 514.8125 343.335938 514.753906 344.066406 514.613281 C 343.335938 514.753906 342.582031 514.8125 341.8125 514.78125 Z M 343.824219 442.792969 C 344.335938 442.464844 344.804688 442.085938 345.230469 441.667969 C 344.804688 442.085938 344.335938 442.464844 343.824219 442.792969 Z M 350.523438 497.679688 C 350.949219 498.453125 351.320312 499.257812 351.605469 500.085938 C 351.320312 499.257812 350.949219 498.453125 350.523438 497.679688 Z M 351.957031 507.085938 C 351.882812 507.375 351.800781 507.65625 351.707031 507.933594 C 351.800781 507.65625 351.882812 507.375 351.957031 507.085938 C 352.019531 506.824219 352.078125 506.5625 352.125 506.300781 C 352.078125 506.5625 352.019531 506.824219 351.957031 507.085938 Z M 357.804688 353.121094 C 358.855469 354.074219 360.011719 355.109375 361.164062 356.21875 C 360.011719 355.109375 358.855469 354.074219 357.804688 353.121094 Z M 357.804688 353.121094 " fill-opacity="1" fill-rule="nonzero"/><path fill="#ffe3d4" d="M 417.25 221.859375 C 418.53125 236.164062 424.929688 250.40625 433.738281 261.667969 C 435.945312 264.816406 439.007812 264.746094 442.410156 265.652344 C 438.390625 253.277344 432.265625 241.941406 425.101562 231.140625 C 422.824219 227.6875 420.277344 224.660156 417.25 221.859375 Z M 417.25 221.859375 " fill-opacity="1" fill-rule="nonzero"/><path fill="#ffe3d4" d="M 240.308594 265.378906 C 245.132812 272.660156 252.828125 278.96875 260.59375 282.917969 C 264.835938 285.171875 268.6875 283.992188 272.980469 282.710938 C 278.675781 278.488281 285.109375 273.363281 283.175781 265.363281 C 279.820312 252.882812 266.976562 242.882812 256.4375 236.386719 C 253.238281 237.292969 250.109375 238.371094 246.960938 239.429688 C 247.066406 240.171875 247.164062 240.90625 247.257812 241.632812 C 247.164062 240.90625 247.066406 240.171875 246.960938 239.429688 C 239.332031 245.925781 235.484375 255.996094 240.308594 265.378906 Z M 240.308594 265.378906 " fill-opacity="1" fill-rule="nonzero"/><path fill="#ffe3d4" d="M 158.234375 334.746094 C 159.792969 339.359375 164.515625 343.085938 168.398438 345.804688 C 174.742188 349.855469 182.21875 352.933594 189.726562 353.875 C 194.464844 354.371094 198.074219 352.113281 201.648438 349.378906 C 204.265625 344.4375 208.269531 337.464844 206.917969 331.753906 C 204.285156 323.636719 195.9375 317.414062 188.683594 313.550781 C 183.191406 310.4375 177.34375 309.035156 171.066406 308.660156 C 168.242188 311.105469 165.625 313.753906 163.164062 316.539062 C 163.421875 317.449219 163.671875 318.34375 163.925781 319.226562 C 163.671875 318.34375 163.421875 317.449219 163.164062 316.539062 C 159.996094 321.890625 157.722656 328.488281 158.234375 334.746094 Z M 158.234375 334.746094 " fill-opacity="1" fill-rule="nonzero"/><path fill="#ffe3d4" d="M 210.066406 459.410156 C 209.636719 455.171875 210.628906 448.832031 206.25 446.4375 C 199.992188 442.453125 191.796875 441.054688 184.511719 440.523438 C 176.265625 439.925781 168.105469 441.359375 161.195312 446.097656 C 158.011719 448.796875 154.214844 452.351562 156.386719 456.898438 C 159.46875 464.4375 168.773438 469.207031 176.195312 471.378906 C 184.714844 473.652344 195.78125 475.410156 203.582031 470.234375 C 207.621094 467.738281 208.988281 463.789062 210.066406 459.410156 Z M 210.066406 459.410156 " fill-opacity="1" fill-rule="nonzero"/><path fill="#ffe3d4" d="M 247.203125 546.78125 C 244.636719 543.105469 241.882812 539.941406 237.453125 538.558594 C 228.777344 535.753906 218.703125 536.796875 210.339844 540.179688 C 206.867188 541.445312 205.550781 544.230469 203.839844 547.242188 C 204.695312 547.519531 205.550781 547.773438 206.398438 548.011719 C 205.550781 547.773438 204.695312 547.519531 203.839844 547.242188 C 203.070312 552.777344 204.214844 557.875 205.5 563.222656 C 215.640625 564.726562 226.625 566.351562 236.835938 564.8125 C 245.011719 562.746094 247.972656 554.488281 247.203125 546.777344 Z M 247.203125 546.78125 " fill-opacity="1" fill-rule="nonzero"/><path fill="#6d6d6d" d="M 639.023438 417.480469 C 620.035156 410.4375 600.910156 402.097656 581.460938 396.609375 C 572.464844 397.496094 564.03125 405.804688 559.222656 413.054688 C 566.082031 416.199219 573.046875 419.15625 580.128906 421.804688 C 582.882812 415.394531 581.207031 409.960938 580.382812 403.378906 C 590.578125 408.609375 591.605469 418.660156 592.785156 428.898438 C 594.597656 457.703125 586.816406 487.875 576.519531 514.609375 C 572.71875 524.882812 574.292969 535.273438 577.921875 545.328125 C 580.179688 551.191406 583.273438 556.503906 588.59375 560.09375 C 596.496094 565.632812 607.085938 565.789062 615.84375 562.351562 C 624.839844 558.558594 631.992188 550.847656 636.96875 542.625 C 650.003906 520.402344 656.023438 495.496094 657.496094 469.925781 C 658.09375 455.480469 657.257812 439.054688 651.234375 425.6875 C 648.925781 420.011719 644.035156 419.703125 639.023438 417.480469 Z M 617.757812 545.753906 C 608.4375 550.011719 597.335938 546.574219 591.914062 537.976562 C 583.820312 525.15625 590.046875 506.675781 604.46875 501.71875 C 612.800781 498.644531 622.496094 501.976562 627.542969 509.171875 C 636.214844 521.070312 631.445312 539.957031 617.757812 545.753906 Z M 617.757812 545.753906 " fill-opacity="1" fill-rule="nonzero"/><path fill="#ffffff" d="M 604.484375 510.0625 C 595.402344 514.316406 594.425781 528.726562 601.59375 535.105469 C 605.546875 539.242188 613.414062 538.984375 617.332031 534.96875 C 622.804688 530.214844 623.625 521.085938 620.136719 515 C 617.023438 509.632812 610.148438 506.898438 604.484375 510.0625 Z M 604.484375 510.0625 " fill-opacity="1" fill-rule="nonzero"/><path fill="#6d6d6d" d="M 603.5625 572.316406 C 592.886719 572.695312 583.359375 568.285156 576.722656 559.957031 C 570.855469 552.675781 569.367188 544.640625 566.613281 536.027344 C 558.351562 550.230469 549.902344 563.839844 536.371094 573.738281 C 531.941406 576.984375 526.910156 578.4375 521.644531 579.667969 C 524.824219 575.789062 527.921875 571.855469 530.761719 567.703125 C 526.003906 566.300781 521.25 564.898438 516.460938 563.566406 C 514.886719 570.898438 513.5 577.890625 515.023438 585.378906 C 534.265625 596.09375 555.632812 603.121094 577.117188 607.683594 C 583.445312 609.242188 589.261719 605.90625 594.53125 602.777344 C 608.488281 593.976562 619.488281 579.445312 627.921875 565.496094 C 620.070312 569.378906 612.59375 572.796875 603.5625 572.316406 Z M 603.5625 572.316406 " fill-opacity="1" fill-rule="nonzero"/><path fill="#e5b1a3" d="M 378.144531 259.667969 C 377.957031 282.269531 387.808594 302.78125 399.9375 321.277344 C 404.195312 327.257812 409.125 334.59375 416.152344 337.464844 C 422.5 340.285156 428.878906 342.847656 434.796875 346.523438 C 439.382812 345.804688 446.070312 344.96875 448.277344 340.234375 C 451.050781 334.097656 447.457031 328.4375 443.503906 323.890625 C 435.328125 314.984375 425.40625 307.839844 417.113281 298.984375 C 404.984375 286.265625 393.316406 271.941406 390.203125 254.132812 C 387.757812 243.292969 388.714844 232.695312 391.164062 221.976562 C 380.625 231.34375 378.179688 246.25 378.144531 259.667969 Z M 378.144531 259.667969 " fill-opacity="1" fill-rule="nonzero"/><path fill="#e5b1a3" d="M 260.59375 282.917969 C 264.835938 285.171875 268.6875 283.992188 272.980469 282.710938 C 266.15625 273.601562 257.5 265.582031 251.410156 255.996094 C 248.089844 250.796875 247.800781 245.363281 246.960938 239.429688 C 239.332031 245.925781 235.484375 255.996094 240.308594 265.378906 C 245.132812 272.660156 252.828125 278.96875 260.59375 282.917969 Z M 260.59375 282.917969 " fill-opacity="1" fill-rule="nonzero"/><path fill="#e5b1a3" d="M 368.789062 369.242188 C 368.652344 362.746094 362.289062 357.191406 357.804688 353.121094 C 335.328125 333.773438 309.792969 316.933594 287.863281 296.539062 C 284.339844 293.226562 281.035156 289.6875 277.890625 286.027344 C 273.03125 288.351562 267.113281 290.523438 261.777344 288.695312 C 255.996094 286.695312 250.792969 282.625 245.335938 279.804688 C 251.496094 291.226562 261.914062 300.761719 270.910156 310.046875 C 283.789062 323.363281 297.765625 335.636719 311.417969 348.199219 C 320.464844 356.59375 330.78125 363.703125 339.179688 372.675781 L 335.089844 372.710938 C 342.035156 375.566406 349.714844 379.171875 357.257812 379.703125 C 363.210938 379.941406 369.078125 375.550781 368.789062 369.242188 Z M 368.789062 369.242188 " fill-opacity="1" fill-rule="nonzero"/><path fill="#e5b1a3" d="M 189.726562 353.875 C 194.464844 354.371094 198.074219 352.113281 201.648438 349.378906 C 190.394531 344.695312 177.480469 338.832031 169.167969 329.667969 C 165.609375 325.890625 164.546875 321.378906 163.164062 316.539062 C 159.996094 321.890625 157.722656 328.488281 158.234375 334.746094 C 159.792969 339.359375 164.515625 343.085938 168.398438 345.804688 C 174.742188 349.855469 182.21875 352.933594 189.726562 353.875 Z M 189.726562 353.875 " fill-opacity="1" fill-rule="nonzero"/><path fill="#e5b1a3" d="M 177.753906 362.113281 C 199.476562 375.667969 225.050781 384.933594 248.570312 395.617188 C 267.695312 404.0625 286.699219 412.625 304.761719 423.222656 C 313.332031 428.179688 322.363281 433.003906 330.148438 439 L 326.402344 438.832031 C 331.085938 441.71875 335.296875 445.359375 341.230469 443.90625 C 346.328125 442.625 348.878906 437.34375 347.800781 432.386719 C 346.378906 425.875 340.394531 420.558594 335.382812 416.558594 C 321.335938 405.703125 305.207031 396.96875 289.382812 389.019531 C 262.410156 375.15625 234.457031 363.703125 206.542969 351.960938 C 202.28125 356.128906 197.527344 359.308594 191.316406 359.222656 C 180.40625 358.882812 169.816406 352.128906 160.511719 347.019531 C 165.453125 352.949219 171.117188 358.097656 177.753906 362.113281 Z M 177.753906 362.113281 " fill-opacity="1" fill-rule="nonzero"/><path fill="#e5b1a3" d="M 210.066406 459.410156 C 198.125 458.371094 185.570312 457.890625 173.988281 454.675781 C 168.585938 453.242188 165.25 449.652344 161.195312 446.097656 C 158.011719 448.796875 154.214844 452.351562 156.386719 456.898438 C 159.46875 464.4375 168.773438 469.207031 176.195312 471.378906 C 184.714844 473.652344 195.78125 475.410156 203.582031 470.234375 C 207.621094 467.738281 208.988281 463.789062 210.066406 459.410156 Z M 210.066406 459.410156 " fill-opacity="1" fill-rule="nonzero"/><path fill="#e5b1a3" d="M 239.539062 481.019531 C 262.699219 483.6875 285.535156 489.328125 307.328125 497.601562 C 316.292969 501.019531 324.84375 505.292969 332.285156 511.410156 C 335.261719 512.863281 338.511719 514.421875 341.8125 514.78125 C 346.585938 514.984375 350.808594 511.683594 351.957031 507.085938 C 353.34375 501.480469 350.503906 496.371094 346.515625 492.625 C 339.589844 486.078125 329.410156 482.386719 320.566406 479.207031 C 291.453125 468.472656 259.722656 464.316406 229 461.273438 C 224.519531 460.863281 220.039062 460.609375 215.539062 460.78125 C 213.144531 466.179688 210.324219 470.863281 206.746094 475.582031 C 217.660156 477.582031 228.488281 479.769531 239.539062 481.019531 Z M 239.539062 481.019531 " fill-opacity="1" fill-rule="nonzero"/><path fill="#e5b1a3" d="M 537.808594 523.769531 C 531.53125 524.933594 525.679688 523.957031 519.472656 523.070312 C 524.535156 511.019531 530.554688 500.984375 533.804688 488.746094 C 526.964844 495.804688 521.320312 503.683594 514.046875 510.386719 C 500.125 523.257812 485.601562 534.421875 467.539062 540.847656 C 444.464844 549.070312 419.265625 551.957031 394.875 550.589844 C 347.40625 548.386719 301 546.214844 253.53125 550.609375 C 252.058594 555.683594 250.265625 560.503906 248.144531 565.34375 C 287.605469 564.472656 326.964844 566.746094 366.222656 570.503906 C 385.84375 572.777344 405.683594 572.695312 425.40625 571.632812 C 440.460938 570.230469 455.460938 566.589844 469.832031 561.941406 C 487.757812 555.71875 501.425781 544.199219 514.765625 531.171875 C 513.636719 536.25 512.320312 541.273438 510.96875 546.300781 C 520.875 548.523438 530.351562 551.753906 539.777344 555.480469 C 548.242188 541.207031 555.171875 526.660156 560.96875 511.121094 C 554.28125 517 546.6875 522.042969 537.808594 523.769531 Z M 537.808594 523.769531 " fill-opacity="1" fill-rule="nonzero"/><path fill="#e5b1a3" d="M 192.429688 548.558594 C 192.789062 552.589844 195.199219 556.367188 197.152344 559.839844 C 197.988281 554.523438 198.621094 549.171875 199.375 543.839844 C 198.398438 541.328125 197.320312 538.863281 196.191406 536.402344 C 193.765625 540.078125 192.121094 544.078125 192.429688 548.558594 Z M 192.429688 548.558594 " fill-opacity="1" fill-rule="nonzero"/><path fill="#e5b1a3" d="M 244.617188 551.035156 C 230.472656 550.523438 217.539062 551.683594 203.839844 547.242188 C 203.070312 552.777344 204.214844 557.875 205.5 563.222656 C 215.640625 564.726562 226.625 566.351562 236.835938 564.8125 C 245.011719 562.746094 247.972656 554.488281 247.203125 546.777344 C 246.347656 548.199219 245.492188 549.617188 244.617188 551.035156 Z M 244.617188 551.035156 " fill-opacity="1" fill-rule="nonzero"/></svg>