<svg xmlns="http://www.w3.org/2000/svg" xmlns:xlink="http://www.w3.org/1999/xlink" width="1080" zoomAndPan="magnify" viewBox="0 0 810 809.999993" height="1080" preserveAspectRatio="xMidYMid meet" version="1.0"><path fill="#5e3528" d="M 656.660156 376.152344 C 657.167969 383.0625 659.425781 389.78125 660.125 396.714844 C 662.277344 412.285156 660.652344 430.121094 652.753906 444.003906 C 645.613281 456.15625 633.171875 463.550781 620.878906 469.636719 C 622.339844 492.25 614.628906 515.683594 600.773438 533.519531 C 588.691406 548.480469 571.203125 552.136719 552.894531 553.042969 C 541.59375 554.3125 530.714844 552.324219 519.523438 551.671875 C 507.925781 559.402344 496.058594 566.1875 482.414062 569.609375 C 456.730469 575.71875 430.308594 576.078125 405.890625 564.898438 C 392.5 559.761719 382.914062 550.402344 371.488281 542.289062 C 374.230469 555.347656 377.800781 566.992188 372.839844 580.175781 C 369.183594 590.257812 360.863281 596.152344 352.394531 601.984375 C 334.671875 613.332031 315.8125 622.691406 296.085938 629.984375 C 284.808594 634.757812 273.296875 636.894531 261.257812 633.535156 C 238.511719 627.46875 218.085938 610.121094 202.753906 592.792969 C 177.957031 564.773438 160.871094 531.59375 149.613281 496.050781 C 140.066406 465.515625 134.933594 430.96875 141.058594 399.269531 C 142.136719 394.875 142.21875 390.183594 146.128906 387.246094 C 163.785156 372.792969 185.136719 361.972656 205.160156 351.132812 C 216.925781 345.238281 229.597656 337.3125 242.585938 335.199219 C 246.472656 334.417969 249.789062 335.75 253.316406 337.207031 C 265.734375 342.765625 276.507812 350.730469 286.515625 359.859375 C 286.242188 349.230469 285.925781 338.960938 288.355469 328.5 C 293.59375 306.945312 302.378906 286.195312 312.875 266.691406 C 326.371094 241.820312 346.058594 221.003906 372.414062 209.867188 C 400.253906 197.125 433.074219 197.359375 460.320312 211.621094 C 477.113281 197.125 496.988281 188.082031 518.425781 182.800781 C 540.074219 177.644531 561.933594 173.375 583.898438 179.523438 C 605.695312 186.160156 621.09375 205.640625 625.273438 227.660156 C 627.257812 240.085938 623.375 251.222656 617.460938 261.9375 C 629.457031 262.085938 640.25 264.304688 648.949219 273.15625 C 669.945312 293.867188 674.972656 328.839844 666.25 356.226562 C 664.328125 363.621094 659.933594 369.433594 656.660156 376.152344 Z M 656.660156 376.152344 " fill-opacity="1" fill-rule="nonzero"/><path fill="#ffe3d4" d="M 487.226562 364.761719 C 478.863281 365.375 471.894531 368.398438 464.039062 370.953125 C 461.25 357.554688 457.109375 342.699219 458.90625 329.007812 C 460.066406 320.746094 466.253906 313.117188 474.808594 311.996094 C 484.082031 312.144531 495.65625 316.414062 499.140625 325.816406 C 503.40625 338.410156 506.089844 351.660156 507.0625 364.929688 C 500.492188 364.785156 493.796875 364.339844 487.226562 364.761719 Z M 487.226562 364.761719 " fill-opacity="1" fill-rule="nonzero"/><path fill="#ffe3d4" d="M 251.457031 406.792969 C 266.03125 401.53125 279.230469 391.238281 291.332031 381.75 C 294.015625 388.175781 296.253906 394.601562 299.695312 400.707031 C 304.152344 408.820312 309.960938 415.246094 315.285156 422.746094 C 312.582031 412.496094 308.230469 402.90625 305.863281 392.570312 C 299.316406 357.007812 308.25 321.210938 325.824219 290.167969 C 336.320312 270.640625 347.851562 252.703125 366.480469 239.960938 C 381.328125 229.945312 399.597656 223.035156 417.699219 223.835938 C 441.964844 223.941406 465.789062 237.316406 477.363281 258.871094 C 485.285156 273.539062 489.382812 290.886719 493.796875 306.902344 C 485.664062 304.179688 478.1875 301.007812 469.421875 302.996094 C 457.449219 305.890625 449.675781 317.109375 448.660156 329.050781 C 447.414062 346.738281 451.492188 364.65625 460.847656 379.765625 C 469.972656 378.5625 478.1875 374.417969 487.269531 373.234375 C 493.375 372.433594 499.625 372.328125 505.75 372.136719 C 504.695312 374.1875 503.597656 376.214844 502.5 378.242188 C 499.585938 383.082031 496.691406 387.710938 491.390625 390.183594 C 477.640625 396.480469 462.074219 394.070312 449.589844 386.019531 C 430.960938 373.933594 416.285156 355.230469 407.8125 334.777344 C 402.007812 321.800781 399.9375 308.234375 395.542969 294.859375 C 394.382812 306.207031 394.191406 317.449219 397.128906 328.5625 C 403 351.914062 405.871094 375.644531 403.316406 399.714844 C 401.964844 412.179688 397.550781 424.375 397.738281 436.628906 C 405.175781 430.734375 411.910156 424.691406 415.691406 415.753906 C 419.746094 406.8125 420.613281 397.683594 421.289062 388.007812 C 428.429688 395.867188 435.988281 401.742188 445.367188 406.773438 C 445.96875 408.289062 446.601562 409.792969 447.242188 411.292969 C 446.601562 409.792969 445.96875 408.289062 445.367188 406.773438 C 454.070312 409.835938 463.085938 411.484375 472.210938 412.730469 C 473.542969 424.269531 475.632812 435.023438 481.316406 445.273438 C 472.929688 457.253906 466.699219 471.519531 464.757812 486.078125 C 463.066406 499.074219 468.8125 510.042969 475.570312 520.605469 C 481.230469 529.355469 488.726562 535.484375 496.480469 542.265625 C 477.703125 550.847656 457.171875 554.859375 436.558594 553.636719 C 417.824219 551.796875 398.289062 544.570312 384.453125 531.488281 C 371.699219 519.316406 361.6875 504.992188 353.386719 489.5 C 352.859375 502.203125 356.175781 513.464844 361.054688 525.023438 C 346.878906 528.867188 334.335938 534.890625 322.128906 543.007812 C 310.617188 530.117188 301.007812 515.808594 292.324219 500.890625 C 293.4375 501.191406 294.542969 501.5 295.640625 501.808594 C 294.542969 501.5 293.4375 501.191406 292.324219 500.890625 C 274.375 471.773438 259.863281 440.03125 251.457031 406.792969 Z M 458 381.289062 C 457.394531 381.039062 456.820312 380.742188 456.28125 380.402344 C 456.820312 380.742188 457.394531 381.039062 458 381.289062 Z M 450.332031 372.730469 C 450.460938 373.058594 450.59375 373.382812 450.738281 373.699219 C 450.59375 373.382812 450.460938 373.058594 450.332031 372.730469 C 449.484375 370.53125 448.777344 368.328125 448.105469 366.144531 C 448.777344 368.328125 449.484375 370.53125 450.332031 372.730469 Z M 439.15625 345.742188 C 439.574219 346.273438 439.96875 346.804688 440.34375 347.34375 C 439.96875 346.804688 439.574219 346.273438 439.15625 345.742188 C 438.246094 344.519531 437.363281 343.289062 436.503906 342.042969 C 437.363281 343.289062 438.246094 344.519531 439.15625 345.742188 Z M 389.546875 443.210938 C 387.320312 444.871094 385.015625 446.40625 382.582031 447.726562 C 385.015625 446.40625 387.320312 444.871094 389.546875 443.210938 Z M 380.164062 499.257812 C 378.53125 498.800781 376.914062 498.273438 375.324219 497.679688 C 376.914062 498.273438 378.53125 498.800781 380.164062 499.257812 Z M 374.457031 450.988281 C 372.730469 451.441406 370.976562 451.757812 369.210938 451.953125 C 370.976562 451.757812 372.730469 451.441406 374.457031 450.988281 Z M 347.050781 475.976562 C 348.492188 478.03125 350.046875 479.964844 351.699219 481.785156 C 350.046875 479.964844 348.492188 478.03125 347.050781 475.976562 Z M 333.171875 404.871094 C 332.667969 404.875 332.164062 404.871094 331.667969 404.855469 C 332.164062 404.871094 332.667969 404.875 333.171875 404.871094 Z M 333.171875 404.871094 " fill-opacity="1" fill-rule="nonzero"/><path fill="#ffe3d4" d="M 557.136719 485.378906 C 572.640625 484.324219 587.40625 480.394531 602.464844 476.90625 C 601.175781 485.824219 599.0625 494.382812 595.558594 502.707031 C 591.523438 512.386719 586.8125 523.691406 576.886719 528.617188 C 566.09375 533.917969 551.835938 533.582031 540.050781 533.625 C 521.296875 533.558594 502.667969 526.691406 491.007812 511.476562 C 486.046875 504.820312 480.53125 496.453125 481.1875 487.8125 C 481.800781 477.183594 486.257812 466.425781 491.367188 457.210938 C 502.605469 464.925781 512.234375 473.671875 524.441406 480.140625 C 524.1875 481.082031 523.902344 482.0625 523.617188 483.066406 C 523.902344 482.0625 524.1875 481.082031 524.441406 480.140625 C 534.625 485.699219 545.773438 486.796875 557.136719 485.378906 Z M 557.136719 485.378906 " fill-opacity="1" fill-rule="nonzero"/><path fill="#ffe3d4" d="M 576.824219 270.769531 C 557.136719 282.136719 535.636719 291.4375 514.601562 300.015625 C 511.664062 289.957031 509.066406 279.8125 505.835938 269.925781 C 506.71875 269.585938 507.605469 269.253906 508.488281 268.929688 C 507.605469 269.253906 506.71875 269.585938 505.835938 269.925781 C 502.160156 259.105469 497.472656 248.285156 491.03125 238.839844 C 486.890625 232.667969 480.957031 227.429688 475.90625 221.933594 C 494.726562 208.8125 518.570312 201.945312 540.769531 197.019531 C 557.644531 193.914062 577.351562 192.644531 591.332031 204.480469 C 598.367188 211.285156 604.109375 220.328125 605.738281 230.070312 C 607.066406 238.269531 604.40625 246.660156 599.296875 253.082031 C 593.488281 260.457031 584.847656 266.078125 576.824219 270.769531 Z M 547.867188 254.496094 C 547.007812 254.902344 546.144531 255.296875 545.285156 255.679688 C 546.144531 255.296875 547.007812 254.902344 547.867188 254.496094 C 551.246094 252.910156 554.585938 251.210938 557.863281 249.394531 C 554.585938 251.210938 551.246094 252.910156 547.867188 254.496094 Z M 547.867188 254.496094 " fill-opacity="1" fill-rule="nonzero"/><path fill="#ffe3d4" d="M 612.390625 382.429688 C 582.882812 392.632812 550.019531 397.875 519.289062 390.226562 C 524.71875 375.855469 527.230469 361.105469 525.921875 345.722656 C 523.808594 332.980469 520.050781 321 516.964844 308.53125 C 539.269531 302.382812 562.671875 295.875 583.6875 286.109375 C 590.382812 283.089844 596.675781 278.652344 603.878906 277.722656 C 612.476562 276.453125 623.183594 276.222656 631.039062 280.574219 C 640.25 286.257812 645.570312 297.921875 648.421875 307.960938 C 652.246094 324.761719 652.582031 342.214844 645.042969 358.0625 C 638.347656 370.761719 625.402344 377.695312 612.390625 382.429688 Z M 612.390625 382.429688 " fill-opacity="1" fill-rule="nonzero"/><path fill="#ffe3d4" d="M 527.90625 411.167969 C 559.714844 416.070312 591.25 410.851562 621.113281 399.542969 C 627.976562 396.925781 634.164062 392.847656 641.050781 390.394531 C 643.4375 398.382812 643.015625 407.53125 642.320312 415.773438 C 641.324219 424.777344 640.566406 433.101562 633.890625 439.882812 C 623.519531 450.597656 607.890625 457.023438 593.742188 460.996094 C 578.363281 465.15625 562.375 468.835938 546.410156 469.511719 C 534.519531 469.996094 525.203125 463.445312 515.910156 457 C 508.433594 451.527344 500.21875 445.503906 494.746094 437.941406 C 489.128906 430.164062 489.257812 420.695312 488.472656 411.503906 C 494.367188 409.457031 500.34375 406.601562 506.511719 405.609375 C 513.734375 406.074219 520.875 409.457031 527.90625 411.167969 Z M 568.863281 444.980469 C 567.4375 444.929688 566.015625 444.84375 564.597656 444.71875 C 566.015625 444.84375 567.4375 444.929688 568.863281 444.980469 Z M 542.226562 439.082031 C 545.398438 440.507812 548.699219 441.660156 552.089844 442.558594 C 548.699219 441.660156 545.398438 440.507812 542.226562 439.082031 C 541.105469 438.542969 540.058594 437.957031 539.078125 437.332031 C 540.058594 437.957031 541.105469 438.542969 542.226562 439.082031 Z M 524.152344 412.828125 C 523.9375 412.09375 523.726562 411.359375 523.515625 410.617188 C 523.726562 411.359375 523.9375 412.09375 524.152344 412.828125 Z M 524.152344 412.828125 " fill-opacity="1" fill-rule="nonzero"/><path fill="#6d6d6d" d="M 271.164062 372.601562 C 263.390625 377.566406 255.492188 382.324219 247.65625 387.183594 C 242.5 379.851562 243.9375 372.621094 243.664062 364.210938 C 230.949219 374.1875 232.597656 388.703125 233.566406 403.222656 C 238.023438 437.328125 252.511719 470.988281 269.535156 500.660156 C 276.90625 515.070312 275.894531 533.984375 269.429688 548.5625 C 261.699219 565.003906 241.171875 570.246094 225.035156 563.925781 C 207.96875 557.269531 196.097656 541.273438 187.125 525.972656 C 177.789062 511.5 171.769531 495.652344 166.699219 479.253906 C 160.089844 457 156.371094 434.117188 159.792969 410.933594 C 160.996094 406.074219 161.863281 399.777344 166.824219 397.347656 C 188.265625 384.859375 209.785156 372.496094 231.6875 360.832031 C 235.128906 359.058594 238.617188 356.816406 242.394531 355.886719 C 253.863281 357.789062 263.601562 363.894531 271.164062 372.601562 Z M 206.808594 500.722656 C 198.023438 515.195312 203.894531 535.0625 218.550781 543.175781 C 230.421875 549.769531 245.988281 546.089844 253.019531 534.277344 C 262.417969 518.410156 254.328125 497.023438 237.265625 490.558594 C 226.132812 486.058594 213.015625 490.496094 206.808594 500.722656 Z M 206.808594 500.722656 " fill-opacity="1" fill-rule="nonzero"/><path fill="#ffffff" d="M 241.277344 530.855469 C 237.304688 534.808594 231.285156 536.136719 226.113281 533.855469 C 215.128906 529.398438 210.949219 514.835938 217.707031 505.117188 C 221.445312 499.433594 228.414062 497.46875 234.75 499.625 C 246.875 504.082031 249.980469 521.789062 241.277344 530.855469 Z M 241.277344 530.855469 " fill-opacity="1" fill-rule="nonzero"/><path fill="#6d6d6d" d="M 273.378906 560.945312 C 282.484375 549.851562 283.539062 537.320312 285.039062 523.628906 C 295.917969 538.105469 308.90625 552.410156 324.367188 562.023438 C 331.421875 566.527344 339.023438 568.511719 347.324219 569.039062 C 343.226562 564.6875 338.9375 560.546875 334.84375 556.171875 C 340.375 553.570312 345.847656 550.886719 351.421875 548.414062 C 354.90625 556.847656 357.335938 565.171875 357.671875 574.367188 C 336.382812 591.4375 311.125 603.949219 285.734375 613.667969 C 278.808594 617.007812 271.164062 613.777344 264.488281 611.324219 C 245.035156 603.082031 228.246094 586.601562 214.855469 570.5625 C 234.011719 579.585938 259.355469 578.359375 273.378906 560.945312 Z M 273.378906 560.945312 " fill-opacity="1" fill-rule="nonzero"/><path fill="#e5b1a3" d="M 576.824219 270.769531 C 557.136719 282.136719 535.636719 291.4375 514.601562 300.015625 C 511.664062 289.957031 509.066406 279.8125 505.835938 269.925781 C 519.988281 264.515625 534.117188 260.984375 547.867188 254.496094 C 559.882812 248.855469 571.375 241.777344 581.511719 233.175781 C 585.398438 229.710938 590.023438 225.335938 591.585938 220.242188 C 592.707031 215.234375 591.648438 209.574219 591.332031 204.480469 C 598.367188 211.285156 604.109375 220.328125 605.738281 230.070312 C 607.066406 238.269531 604.40625 246.660156 599.296875 253.082031 C 593.488281 260.457031 584.847656 266.078125 576.824219 270.769531 Z M 576.824219 270.769531 " fill-opacity="1" fill-rule="nonzero"/><path fill="#e5b1a3" d="M 491.390625 390.183594 C 477.640625 396.480469 462.074219 394.070312 449.589844 386.019531 C 430.960938 373.933594 416.285156 355.230469 407.8125 334.777344 C 402.007812 321.800781 399.9375 308.234375 395.542969 294.859375 C 394.382812 306.207031 394.191406 317.449219 397.128906 328.5625 C 403 351.914062 405.871094 375.644531 403.316406 399.714844 C 401.964844 412.179688 397.550781 424.375 397.738281 436.628906 C 391.59375 441.703125 385.425781 447.046875 377.863281 449.902344 C 368.886719 453.304688 358.898438 452.625 349.859375 449.773438 C 335.664062 445.082031 323.226562 435.445312 315.285156 422.746094 C 312.582031 412.5 308.230469 402.90625 305.863281 392.570312 C 313.910156 399.417969 322.105469 405.019531 333.171875 404.871094 C 347.703125 405.207031 359.953125 396.207031 366.566406 383.695312 C 377.71875 363.199219 375.4375 339.871094 378.898438 317.449219 C 380.441406 307.726562 382.425781 295.515625 389.015625 287.84375 C 394.804688 281.417969 402.175781 281.460938 410.136719 280.722656 C 416.832031 303.902344 424.585938 326.175781 439.15625 345.742188 C 445.621094 353.941406 446.71875 363.347656 450.332031 372.730469 C 452.398438 378.011719 456.136719 381.730469 462.011719 382.257812 C 475.402344 383.316406 489.382812 380.925781 502.5 378.242188 C 499.585938 383.082031 496.691406 387.710938 491.390625 390.183594 Z M 491.390625 390.183594 " fill-opacity="1" fill-rule="nonzero"/><path fill="#e5b1a3" d="M 612.390625 382.429688 C 582.882812 392.632812 550.019531 397.875 519.289062 390.226562 C 524.71875 375.855469 527.230469 361.105469 525.921875 345.722656 C 526.660156 350.203125 527.292969 354.703125 527.886719 359.203125 C 555.28125 359.902344 582.484375 355.507812 608.441406 346.800781 C 621.050781 342.488281 632.644531 337.398438 641.136719 326.640625 C 645.675781 321.253906 647.746094 314.914062 648.421875 307.960938 C 652.246094 324.761719 652.582031 342.214844 645.042969 358.0625 C 638.347656 370.761719 625.402344 377.695312 612.390625 382.429688 Z M 612.390625 382.429688 " fill-opacity="1" fill-rule="nonzero"/><path fill="#e5b1a3" d="M 527.90625 411.167969 L 523.515625 410.617188 C 526.914062 422.472656 530.25 433.332031 542.226562 439.082031 C 562.523438 448.210938 588.121094 446.183594 608.230469 437.433594 C 621.261719 432.066406 630.636719 423.167969 642.320312 415.773438 C 641.324219 424.777344 640.566406 433.101562 633.890625 439.882812 C 623.519531 450.597656 607.890625 457.023438 593.742188 460.996094 C 578.363281 465.15625 562.375 468.835938 546.410156 469.511719 C 534.519531 469.996094 525.203125 463.445312 515.910156 457 C 508.433594 451.527344 500.21875 445.503906 494.746094 437.941406 C 489.128906 430.164062 489.257812 420.695312 488.472656 411.503906 C 494.367188 409.457031 500.34375 406.601562 506.511719 405.609375 C 513.734375 406.074219 520.875 409.457031 527.90625 411.167969 Z M 527.90625 411.167969 " fill-opacity="1" fill-rule="nonzero"/><path fill="#e5b1a3" d="M 327.367188 502.898438 C 338.75 497.550781 343.375 487.324219 347.050781 475.976562 C 363.460938 499.328125 394.402344 507.695312 420.675781 497.023438 C 432.546875 491.953125 443.550781 482.632812 449.992188 471.414062 C 457.53125 457.359375 458.460938 439.757812 452.90625 424.859375 C 450.648438 418.730469 447.773438 412.835938 445.367188 406.773438 C 454.070312 409.835938 463.085938 411.484375 472.210938 412.730469 C 473.542969 424.269531 475.632812 435.023438 481.316406 445.273438 C 472.929688 457.253906 466.699219 471.519531 464.757812 486.078125 C 463.066406 499.074219 468.8125 510.042969 475.570312 520.605469 C 481.230469 529.355469 488.726562 535.484375 496.480469 542.265625 C 477.703125 550.847656 457.171875 554.859375 436.558594 553.636719 C 417.824219 551.796875 398.289062 544.570312 384.453125 531.488281 C 371.699219 519.316406 361.6875 504.992188 353.386719 489.5 C 352.859375 502.203125 356.175781 513.464844 361.054688 525.023438 C 346.878906 528.871094 334.335938 534.890625 322.128906 543.007812 C 310.617188 530.117188 301.007812 515.808594 292.324219 500.890625 C 304.175781 504.082031 315.328125 508.351562 327.367188 502.898438 Z M 327.367188 502.898438 " fill-opacity="1" fill-rule="nonzero"/><path fill="#e5b1a3" d="M 491.007812 511.476562 C 486.046875 504.820312 480.53125 496.453125 481.1875 487.8125 C 481.800781 477.183594 486.257812 466.425781 491.367188 457.210938 C 502.605469 464.925781 512.234375 473.671875 524.441406 480.140625 C 523.28125 484.449219 521.445312 489.542969 522.097656 494.042969 C 523.640625 501.101562 529.597656 506.003906 535.953125 508.773438 C 545.5625 512.957031 557.03125 513.464844 567.339844 512.449219 C 577.753906 511.308594 586.199219 506.933594 595.558594 502.707031 C 591.523438 512.386719 586.8125 523.691406 576.886719 528.617188 C 566.09375 533.917969 551.835938 533.582031 540.050781 533.625 C 521.296875 533.558594 502.667969 526.691406 491.007812 511.476562 Z M 491.007812 511.476562 " fill-opacity="1" fill-rule="nonzero"/></svg>