<svg xmlns="http://www.w3.org/2000/svg" xmlns:xlink="http://www.w3.org/1999/xlink" width="1080" zoomAndPan="magnify" viewBox="0 0 810 809.999993" height="1080" preserveAspectRatio="xMidYMid meet" version="1.0"><path fill="#5e3528" d="M 135.910156 459.667969 C 136.75 443.6875 139.195312 426.113281 146.347656 411.632812 C 151.273438 407.257812 158.0625 404.710938 163.949219 401.839844 C 181.515625 394.214844 199.765625 388.0625 217.949219 382.113281 C 224.347656 380.386719 233.839844 377.925781 239.691406 382.027344 C 246.121094 385.925781 252.007812 391.328125 257.53125 396.421875 C 264.9375 374.675781 280.113281 355.171875 295.164062 338.113281 C 307.515625 324.234375 320.34375 312.128906 329.992188 295.960938 C 338.9375 280.507812 346.804688 264.386719 353.769531 247.925781 C 358.371094 237.171875 364.441406 226.984375 371.164062 217.449219 C 378.296875 207.652344 387.433594 199.652344 399.816406 197.839844 C 419.726562 194.816406 438.613281 210.746094 444.257812 229.035156 C 450.601562 248.097656 448.945312 269.960938 442.324219 288.730469 C 438.695312 299.34375 432.746094 308.472656 426.808594 317.875 C 450.484375 301.191406 469.128906 280.695312 489.226562 260.214844 C 501.132812 248.644531 513.636719 235.773438 527.558594 226.710938 C 536.523438 221.035156 546.273438 216.746094 557.152344 218.199219 C 567.980469 219.839844 578.878906 226.0625 584.710938 235.5 C 590.492188 245.121094 591.671875 256.59375 589.140625 267.445312 C 586.386719 280.679688 579.597656 292.285156 570.597656 302.234375 C 561.71875 311.925781 552.023438 320.933594 542.132812 329.582031 C 553.730469 322.609375 565.3125 315.652344 576.652344 308.265625 C 588.832031 300.574219 602.105469 291.617188 616.132812 287.925781 C 627.523438 284.761719 639.910156 287.070312 649.675781 293.636719 C 667.84375 305.992188 675.027344 330.710938 667.414062 351.105469 C 662.644531 362.507812 651.285156 371.445312 640.917969 377.617188 C 617.535156 391.359375 590.988281 401.035156 565.792969 411.003906 C 587.105469 408.011719 607.496094 405.71875 628.996094 408.949219 C 638.695312 410.027344 647.964844 413.34375 655.902344 419.070312 C 666.988281 426.847656 674.359375 440.746094 673.230469 454.386719 C 672.804688 462.863281 668.613281 470.371094 662.507812 476.097656 C 652.636719 485.546875 638.933594 490.078125 625.558594 491.410156 C 606.453125 493.136719 587.480469 495.90625 568.425781 498.097656 C 582.503906 500.097656 596.085938 502.042969 608.847656 508.796875 C 617.929688 513.429688 625.644531 520.8125 631.117188 529.359375 C 639.789062 543.085938 637.105469 562.761719 624.632812 573.292969 C 617.125 579.753906 607.835938 581.460938 598.207031 581.875 C 588.4375 582.367188 578.773438 581.53125 569.074219 580.523438 C 556.179688 579.273438 544.511719 581.71875 531.511719 582.0625 C 508.042969 582.949219 484.746094 585.617188 461.34375 587.394531 C 440.679688 589.546875 418.753906 592.558594 397.984375 591.050781 C 387.464844 590.898438 377.066406 590.503906 366.769531 588.148438 C 354.503906 585.378906 340.5625 582.421875 329.835938 575.652344 C 322.6875 570.199219 316.1875 563.875 309.226562 558.199219 C 310.304688 565.875 312.011719 572.761719 310.507812 580.558594 C 309.277344 588.710938 305.121094 596.300781 298.074219 600.796875 C 288.101562 607.34375 275.851562 611.410156 264.648438 615.34375 C 253.90625 618.761719 242.617188 621.546875 231.496094 623.394531 C 218.050781 625.957031 204.402344 618.523438 194.34375 610.230469 C 175.238281 594.214844 161.433594 570.914062 152.09375 548.0625 C 141.164062 520.128906 135.039062 489.703125 135.910156 459.667969 Z M 135.910156 459.667969 " fill-opacity="1" fill-rule="nonzero"/><path fill="#ffe3d4" d="M 253.476562 429.789062 C 254.640625 441.222656 258.574219 451.34375 263.535156 461.582031 C 261.792969 436.148438 266 411.003906 279.460938 389.085938 C 286.578125 378.164062 294.34375 367.632812 302.914062 357.804688 C 315.160156 343.566406 328.742188 331.328125 339.722656 315.925781 C 349.902344 302.164062 356.453125 286.847656 364.542969 272.027344 C 368.511719 271.328125 372.703125 271.667969 376.585938 270.660156 C 381.667969 267.703125 385.207031 261.617188 388.234375 256.746094 C 394.976562 244.523438 400.449219 230.917969 398.6875 216.695312 C 406.914062 215.738281 412.335938 216.679688 418.835938 221.976562 C 429.375 231.34375 431.820312 246.25 431.855469 259.667969 C 432.042969 282.269531 422.191406 302.78125 410.0625 321.277344 C 405.804688 327.257812 400.875 334.59375 393.847656 337.464844 C 387.5 340.285156 381.121094 342.847656 375.203125 346.523438 C 374.199219 346.367188 373.09375 346.203125 371.960938 345.996094 C 373.09375 346.203125 374.199219 346.367188 375.203125 346.523438 C 388.425781 346.933594 401.441406 345.464844 413.636719 340.097656 C 433.53125 331.515625 451.835938 318.265625 468.136719 304.078125 C 490.664062 284.0625 511.328125 259.207031 536.351562 242.269531 C 529.851562 249.601562 520.871094 258.097656 519.929688 268.40625 C 519.433594 276.730469 525.78125 281.925781 532.109375 286.027344 C 536.96875 288.351562 542.886719 290.523438 548.222656 288.695312 C 554.003906 286.695312 559.207031 282.625 564.664062 279.804688 C 558.503906 291.226562 548.085938 300.761719 539.089844 310.046875 C 526.210938 323.363281 512.234375 335.636719 498.582031 348.199219 C 489.535156 356.59375 479.21875 363.703125 470.820312 372.675781 L 474.910156 372.710938 C 485.292969 369.070312 495.027344 364.078125 505.167969 359.910156 C 532.453125 347.992188 559.617188 335.222656 585.515625 320.523438 C 599.042969 313.121094 611.839844 305.140625 627.59375 304.046875 C 616.304688 309.890625 605.613281 313.636719 599.097656 325.53125 C 594.050781 334.027344 599.214844 344.265625 603.457031 351.960938 C 607.71875 356.128906 612.472656 359.308594 618.683594 359.222656 C 629.59375 358.882812 640.183594 352.128906 649.488281 347.019531 C 644.546875 352.949219 638.882812 358.097656 632.246094 362.113281 C 610.523438 375.667969 584.949219 384.933594 561.429688 395.617188 C 542.304688 404.0625 523.300781 412.625 505.238281 423.222656 C 496.667969 428.179688 487.636719 433.003906 479.851562 439 L 483.597656 438.832031 C 502.054688 433.378906 522.15625 432.128906 541.023438 428.285156 C 553.648438 425.71875 566.117188 424.371094 579.015625 424.097656 C 596.976562 422.8125 614.679688 422.882812 632.246094 427.464844 C 640.097656 429.582031 646.152344 434.4375 651.472656 440.402344 C 637.445312 433.890625 621.726562 432.933594 607.101562 438.027344 C 602.773438 439.738281 597.488281 442.386719 595.914062 447.121094 C 594.664062 451.480469 594.613281 456.265625 594.460938 460.78125 C 596.855469 466.179688 599.675781 470.863281 603.253906 475.582031 C 592.339844 477.582031 581.511719 479.769531 570.460938 481.019531 C 547.300781 483.6875 524.464844 489.328125 502.671875 497.601562 C 493.707031 501.019531 485.15625 505.292969 477.714844 511.410156 C 477.34375 511.59375 476.964844 511.777344 476.585938 511.960938 C 476.964844 511.777344 477.34375 511.59375 477.714844 511.410156 C 494.667969 507.925781 512.507812 507.683594 529.734375 508.695312 C 547.214844 509.15625 564.59375 511.359375 581.511719 515.804688 C 594.324219 519.601562 606.074219 525.019531 613.808594 536.402344 C 616.234375 540.078125 617.878906 544.078125 617.570312 548.558594 C 617.210938 552.589844 614.800781 556.367188 612.847656 559.839844 C 612.011719 554.523438 611.378906 549.171875 610.625 543.839844 C 608.230469 540.027344 605.921875 536.609375 601.507812 534.984375 C 589.945312 530.214844 574.859375 529.445312 564.21875 536.863281 C 559.257812 540.316406 558.28125 545.222656 556.46875 550.609375 C 557.941406 555.683594 559.734375 560.503906 561.855469 565.34375 C 522.394531 564.472656 483.035156 566.746094 443.777344 570.503906 C 424.15625 572.777344 404.316406 572.695312 384.59375 571.632812 C 369.539062 570.230469 354.539062 566.589844 340.167969 561.941406 C 322.242188 555.71875 308.574219 544.199219 295.234375 531.171875 C 296.363281 536.25 297.679688 541.273438 299.03125 546.300781 C 289.125 548.523438 279.648438 551.753906 270.222656 555.480469 C 261.757812 541.207031 254.828125 526.660156 249.03125 511.121094 C 239.742188 487.855469 233.226562 463.277344 230.726562 438.316406 C 238.714844 436.453125 246.039062 433.105469 253.476562 429.789062 Z M 419.796875 254.132812 C 420.140625 252.605469 420.417969 251.085938 420.628906 249.570312 C 420.417969 251.085938 420.140625 252.605469 419.796875 254.132812 C 419.648438 254.964844 419.484375 255.792969 419.300781 256.613281 C 419.484375 255.792969 419.648438 254.964844 419.796875 254.132812 Z M 388.074219 303.808594 C 386.425781 305.371094 384.742188 306.898438 383.046875 308.410156 C 384.742188 306.898438 386.425781 305.371094 388.074219 303.808594 Z M 468.1875 514.78125 C 469.011719 514.691406 469.835938 514.523438 470.648438 514.304688 C 469.835938 514.523438 469.011719 514.691406 468.1875 514.78125 C 467.417969 514.8125 466.664062 514.753906 465.933594 514.613281 C 466.664062 514.753906 467.417969 514.8125 468.1875 514.78125 Z M 466.175781 442.792969 C 465.664062 442.464844 465.195312 442.085938 464.769531 441.667969 C 465.195312 442.085938 465.664062 442.464844 466.175781 442.792969 Z M 459.476562 497.679688 C 459.050781 498.453125 458.679688 499.257812 458.394531 500.085938 C 458.679688 499.257812 459.050781 498.453125 459.476562 497.679688 Z M 458.042969 507.085938 C 458.117188 507.375 458.199219 507.65625 458.292969 507.933594 C 458.199219 507.65625 458.117188 507.375 458.042969 507.085938 C 457.980469 506.824219 457.921875 506.5625 457.875 506.300781 C 457.921875 506.5625 457.980469 506.824219 458.042969 507.085938 Z M 452.195312 353.121094 C 451.144531 354.074219 449.988281 355.109375 448.835938 356.21875 C 449.988281 355.109375 451.144531 354.074219 452.195312 353.121094 Z M 452.195312 353.121094 " fill-opacity="1" fill-rule="nonzero"/><path fill="#ffe3d4" d="M 392.75 221.859375 C 391.46875 236.164062 385.070312 250.40625 376.261719 261.667969 C 374.054688 264.816406 370.992188 264.746094 367.589844 265.652344 C 371.609375 253.277344 377.734375 241.941406 384.898438 231.140625 C 387.175781 227.6875 389.722656 224.660156 392.75 221.859375 Z M 392.75 221.859375 " fill-opacity="1" fill-rule="nonzero"/><path fill="#ffe3d4" d="M 569.691406 265.378906 C 564.867188 272.660156 557.171875 278.96875 549.40625 282.917969 C 545.164062 285.171875 541.3125 283.992188 537.019531 282.710938 C 531.324219 278.488281 524.890625 273.363281 526.824219 265.363281 C 530.179688 252.882812 543.023438 242.882812 553.5625 236.386719 C 556.761719 237.292969 559.890625 238.371094 563.039062 239.429688 C 562.933594 240.171875 562.835938 240.90625 562.742188 241.632812 C 562.835938 240.90625 562.933594 240.171875 563.039062 239.429688 C 570.667969 245.925781 574.515625 255.996094 569.691406 265.378906 Z M 569.691406 265.378906 " fill-opacity="1" fill-rule="nonzero"/><path fill="#ffe3d4" d="M 651.765625 334.746094 C 650.207031 339.359375 645.484375 343.085938 641.601562 345.804688 C 635.257812 349.855469 627.78125 352.933594 620.273438 353.875 C 615.535156 354.371094 611.925781 352.113281 608.351562 349.378906 C 605.734375 344.4375 601.730469 337.464844 603.082031 331.753906 C 605.714844 323.636719 614.0625 317.414062 621.316406 313.550781 C 626.808594 310.4375 632.65625 309.035156 638.933594 308.660156 C 641.757812 311.105469 644.375 313.753906 646.835938 316.539062 C 646.578125 317.449219 646.328125 318.34375 646.074219 319.226562 C 646.328125 318.34375 646.578125 317.449219 646.835938 316.539062 C 650.003906 321.890625 652.277344 328.488281 651.765625 334.746094 Z M 651.765625 334.746094 " fill-opacity="1" fill-rule="nonzero"/><path fill="#ffe3d4" d="M 599.933594 459.410156 C 600.363281 455.171875 599.371094 448.832031 603.75 446.4375 C 610.007812 442.453125 618.203125 441.054688 625.488281 440.523438 C 633.734375 439.925781 641.894531 441.359375 648.804688 446.097656 C 651.988281 448.796875 655.785156 452.351562 653.613281 456.898438 C 650.53125 464.4375 641.226562 469.207031 633.804688 471.378906 C 625.285156 473.652344 614.21875 475.410156 606.417969 470.234375 C 602.378906 467.738281 601.011719 463.789062 599.933594 459.410156 Z M 599.933594 459.410156 " fill-opacity="1" fill-rule="nonzero"/><path fill="#ffe3d4" d="M 562.796875 546.78125 C 565.363281 543.105469 568.117188 539.941406 572.546875 538.558594 C 581.21875 535.753906 591.296875 536.796875 599.660156 540.179688 C 603.132812 541.445312 604.449219 544.230469 606.160156 547.242188 C 605.304688 547.519531 604.449219 547.773438 603.601562 548.011719 C 604.449219 547.773438 605.304688 547.519531 606.160156 547.242188 C 606.929688 552.777344 605.785156 557.875 604.5 563.222656 C 594.359375 564.726562 583.375 566.351562 573.164062 564.8125 C 564.988281 562.746094 562.027344 554.488281 562.796875 546.777344 Z M 562.796875 546.78125 " fill-opacity="1" fill-rule="nonzero"/><path fill="#6d6d6d" d="M 170.976562 417.480469 C 189.964844 410.4375 209.089844 402.097656 228.539062 396.609375 C 237.535156 397.496094 245.96875 405.804688 250.777344 413.054688 C 243.917969 416.199219 236.953125 419.15625 229.871094 421.804688 C 227.117188 415.394531 228.792969 409.960938 229.617188 403.378906 C 219.421875 408.609375 218.394531 418.660156 217.214844 428.898438 C 215.402344 457.703125 223.183594 487.875 233.480469 514.609375 C 237.277344 524.882812 235.707031 535.273438 232.078125 545.328125 C 229.820312 551.191406 226.726562 556.503906 221.40625 560.09375 C 213.503906 565.632812 202.914062 565.789062 194.15625 562.351562 C 185.160156 558.558594 178.007812 550.847656 173.03125 542.625 C 159.996094 520.402344 153.976562 495.496094 152.503906 469.925781 C 151.90625 455.480469 152.742188 439.054688 158.765625 425.6875 C 161.074219 420.011719 165.964844 419.703125 170.976562 417.480469 Z M 192.238281 545.753906 C 201.5625 550.011719 212.664062 546.574219 218.085938 537.976562 C 226.179688 525.15625 219.953125 506.675781 205.53125 501.71875 C 197.199219 498.644531 187.5 501.976562 182.457031 509.171875 C 173.785156 521.070312 178.554688 539.957031 192.238281 545.753906 Z M 192.238281 545.753906 " fill-opacity="1" fill-rule="nonzero"/><path fill="#ffffff" d="M 205.515625 510.0625 C 214.597656 514.316406 215.574219 528.726562 208.40625 535.105469 C 204.453125 539.242188 196.585938 538.984375 192.667969 534.96875 C 187.195312 530.214844 186.375 521.085938 189.863281 515 C 192.976562 509.632812 199.851562 506.898438 205.515625 510.0625 Z M 205.515625 510.0625 " fill-opacity="1" fill-rule="nonzero"/><path fill="#6d6d6d" d="M 206.4375 572.316406 C 217.113281 572.695312 226.640625 568.285156 233.277344 559.957031 C 239.144531 552.675781 240.632812 544.640625 243.386719 536.027344 C 251.648438 550.230469 260.097656 563.839844 273.628906 573.738281 C 278.058594 576.984375 283.089844 578.4375 288.355469 579.667969 C 285.175781 575.789062 282.078125 571.855469 279.238281 567.703125 C 283.996094 566.300781 288.75 564.898438 293.539062 563.566406 C 295.113281 570.898438 296.5 577.890625 294.976562 585.378906 C 275.734375 596.09375 254.367188 603.121094 232.882812 607.683594 C 226.554688 609.242188 220.738281 605.90625 215.46875 602.777344 C 201.511719 593.976562 190.511719 579.445312 182.078125 565.496094 C 189.929688 569.378906 197.40625 572.796875 206.4375 572.316406 Z M 206.4375 572.316406 " fill-opacity="1" fill-rule="nonzero"/><path fill="#e5b1a3" d="M 431.855469 259.667969 C 432.042969 282.269531 422.191406 302.78125 410.0625 321.277344 C 405.804688 327.257812 400.875 334.59375 393.847656 337.464844 C 387.5 340.285156 381.121094 342.847656 375.203125 346.523438 C 370.617188 345.804688 363.929688 344.96875 361.722656 340.234375 C 358.949219 334.097656 362.542969 328.4375 366.496094 323.890625 C 374.671875 314.984375 384.59375 307.839844 392.886719 298.984375 C 405.015625 286.265625 416.683594 271.941406 419.796875 254.132812 C 422.242188 243.292969 421.285156 232.695312 418.835938 221.976562 C 429.375 231.34375 431.820312 246.25 431.855469 259.667969 Z M 431.855469 259.667969 " fill-opacity="1" fill-rule="nonzero"/><path fill="#e5b1a3" d="M 549.40625 282.917969 C 545.164062 285.171875 541.3125 283.992188 537.019531 282.710938 C 543.84375 273.601562 552.5 265.582031 558.589844 255.996094 C 561.910156 250.796875 562.199219 245.363281 563.039062 239.429688 C 570.667969 245.925781 574.515625 255.996094 569.691406 265.378906 C 564.867188 272.660156 557.171875 278.96875 549.40625 282.917969 Z M 549.40625 282.917969 " fill-opacity="1" fill-rule="nonzero"/><path fill="#e5b1a3" d="M 441.210938 369.242188 C 441.347656 362.746094 447.710938 357.191406 452.195312 353.121094 C 474.671875 333.773438 500.207031 316.933594 522.136719 296.539062 C 525.660156 293.226562 528.964844 289.6875 532.109375 286.027344 C 536.96875 288.351562 542.886719 290.523438 548.222656 288.695312 C 554.003906 286.695312 559.207031 282.625 564.664062 279.804688 C 558.503906 291.226562 548.085938 300.761719 539.089844 310.046875 C 526.210938 323.363281 512.234375 335.636719 498.582031 348.199219 C 489.535156 356.59375 479.21875 363.703125 470.820312 372.675781 L 474.910156 372.710938 C 467.964844 375.566406 460.285156 379.171875 452.742188 379.703125 C 446.789062 379.941406 440.921875 375.550781 441.210938 369.242188 Z M 441.210938 369.242188 " fill-opacity="1" fill-rule="nonzero"/><path fill="#e5b1a3" d="M 620.273438 353.875 C 615.535156 354.371094 611.925781 352.113281 608.351562 349.378906 C 619.605469 344.695312 632.519531 338.832031 640.832031 329.667969 C 644.390625 325.890625 645.453125 321.378906 646.835938 316.539062 C 650.003906 321.890625 652.277344 328.488281 651.765625 334.746094 C 650.207031 339.359375 645.484375 343.085938 641.601562 345.804688 C 635.257812 349.855469 627.78125 352.933594 620.273438 353.875 Z M 620.273438 353.875 " fill-opacity="1" fill-rule="nonzero"/><path fill="#e5b1a3" d="M 632.246094 362.113281 C 610.523438 375.667969 584.949219 384.933594 561.429688 395.617188 C 542.304688 404.0625 523.300781 412.625 505.238281 423.222656 C 496.667969 428.179688 487.636719 433.003906 479.851562 439 L 483.597656 438.832031 C 478.914062 441.71875 474.703125 445.359375 468.769531 443.90625 C 463.671875 442.625 461.121094 437.34375 462.199219 432.386719 C 463.621094 425.875 469.605469 420.558594 474.617188 416.558594 C 488.664062 405.703125 504.792969 396.96875 520.617188 389.019531 C 547.589844 375.15625 575.542969 363.703125 603.457031 351.960938 C 607.71875 356.128906 612.472656 359.308594 618.683594 359.222656 C 629.59375 358.882812 640.183594 352.128906 649.488281 347.019531 C 644.546875 352.949219 638.882812 358.097656 632.246094 362.113281 Z M 632.246094 362.113281 " fill-opacity="1" fill-rule="nonzero"/><path fill="#e5b1a3" d="M 599.933594 459.410156 C 611.875 458.371094 624.429688 457.890625 636.011719 454.675781 C 641.414062 453.242188 644.75 449.652344 648.804688 446.097656 C 651.988281 448.796875 655.785156 452.351562 653.613281 456.898438 C 650.53125 464.4375 641.226562 469.207031 633.804688 471.378906 C 625.285156 473.652344 614.21875 475.410156 606.417969 470.234375 C 602.378906 467.738281 601.011719 463.789062 599.933594 459.410156 Z M 599.933594 459.410156 " fill-opacity="1" fill-rule="nonzero"/><path fill="#e5b1a3" d="M 570.460938 481.019531 C 547.300781 483.6875 524.464844 489.328125 502.671875 497.601562 C 493.707031 501.019531 485.15625 505.292969 477.714844 511.410156 C 474.738281 512.863281 471.488281 514.421875 468.1875 514.78125 C 463.414062 514.984375 459.191406 511.683594 458.042969 507.085938 C 456.65625 501.480469 459.496094 496.371094 463.484375 492.625 C 470.410156 486.078125 480.589844 482.386719 489.433594 479.207031 C 518.546875 468.472656 550.277344 464.316406 581 461.273438 C 585.480469 460.863281 589.960938 460.609375 594.460938 460.78125 C 596.855469 466.179688 599.675781 470.863281 603.253906 475.582031 C 592.339844 477.582031 581.511719 479.769531 570.460938 481.019531 Z M 570.460938 481.019531 " fill-opacity="1" fill-rule="nonzero"/><path fill="#e5b1a3" d="M 272.191406 523.769531 C 278.46875 524.933594 284.320312 523.957031 290.527344 523.070312 C 285.464844 511.019531 279.445312 500.984375 276.195312 488.746094 C 283.035156 495.804688 288.679688 503.683594 295.953125 510.386719 C 309.875 523.257812 324.398438 534.421875 342.460938 540.847656 C 365.535156 549.070312 390.734375 551.957031 415.125 550.589844 C 462.59375 548.386719 509 546.214844 556.46875 550.609375 C 557.941406 555.683594 559.734375 560.503906 561.855469 565.34375 C 522.394531 564.472656 483.035156 566.746094 443.777344 570.503906 C 424.15625 572.777344 404.316406 572.695312 384.59375 571.632812 C 369.539062 570.230469 354.539062 566.589844 340.167969 561.941406 C 322.242188 555.71875 308.574219 544.199219 295.234375 531.171875 C 296.363281 536.25 297.679688 541.273438 299.03125 546.300781 C 289.125 548.523438 279.648438 551.753906 270.222656 555.480469 C 261.757812 541.207031 254.828125 526.660156 249.03125 511.121094 C 255.71875 517 263.3125 522.042969 272.191406 523.769531 Z M 272.191406 523.769531 " fill-opacity="1" fill-rule="nonzero"/><path fill="#e5b1a3" d="M 617.570312 548.558594 C 617.210938 552.589844 614.800781 556.367188 612.847656 559.839844 C 612.011719 554.523438 611.378906 549.171875 610.625 543.839844 C 611.601562 541.328125 612.679688 538.863281 613.808594 536.402344 C 616.234375 540.078125 617.878906 544.078125 617.570312 548.558594 Z M 617.570312 548.558594 " fill-opacity="1" fill-rule="nonzero"/><path fill="#e5b1a3" d="M 565.382812 551.035156 C 579.527344 550.523438 592.460938 551.683594 606.160156 547.242188 C 606.929688 552.777344 605.785156 557.875 604.5 563.222656 C 594.359375 564.726562 583.375 566.351562 573.164062 564.8125 C 564.988281 562.746094 562.027344 554.488281 562.796875 546.777344 C 563.652344 548.199219 564.507812 549.617188 565.382812 551.035156 Z M 565.382812 551.035156 " fill-opacity="1" fill-rule="nonzero"/></svg>