<svg xmlns="http://www.w3.org/2000/svg" xmlns:xlink="http://www.w3.org/1999/xlink" width="1080" zoomAndPan="magnify" viewBox="0 0 810 809.999993" height="1080" preserveAspectRatio="xMidYMid meet" version="1.0"><path fill="#5e3528" d="M 146.40625 423.03125 C 160.066406 412.769531 175.757812 404.679688 190.816406 396.671875 C 199.335938 392.394531 207.808594 387.132812 217.308594 385.71875 C 220.265625 385.238281 222.707031 386.296875 225.359375 387.425781 C 234.746094 391.703125 243.203125 397.71875 250.546875 404.9375 C 248.554688 387.90625 253.039062 371.902344 260 356.542969 C 266.671875 338.546875 276.605469 320.085938 290.667969 306.800781 C 310.390625 288.5 338.007812 279.121094 364.640625 285.105469 C 375.363281 287.308594 384.410156 292.617188 393.445312 298.535156 C 400.066406 294.109375 407.238281 290.992188 414.292969 287.40625 C 438.46875 275.246094 461.210938 261.027344 483.296875 245.429688 C 497.476562 235.472656 511.21875 224.972656 525.78125 215.578125 C 533.257812 210.867188 539.445312 205.480469 547.578125 201.90625 C 562.785156 195.007812 581.203125 194.765625 595.816406 203.324219 C 607.679688 210.046875 616.132812 222.109375 618.382812 235.570312 C 620.28125 245.15625 618.351562 255.640625 615.183594 264.777344 C 612.257812 273.398438 604.398438 279.972656 598 286.199219 C 586.621094 296.925781 573.472656 304.855469 560.808594 313.84375 C 576.558594 308.265625 591.410156 299.996094 606.664062 293.164062 C 618.015625 287.597656 630.164062 283.996094 642.878906 286.714844 C 654.453125 288.546875 664.242188 296.265625 669.175781 306.832031 C 674.707031 318.832031 674.785156 333.351562 670.398438 345.703125 C 664.015625 364.972656 649.632812 379.898438 631.886719 389.273438 C 600.765625 405.582031 567.042969 416.695312 532.128906 421.003906 C 536.519531 435.574219 536.921875 453.476562 529.800781 467.257812 C 524.175781 477.746094 515.09375 482.394531 505.304688 488.117188 C 503.9375 494.679688 505.238281 501.582031 503.164062 508.175781 C 499.5 521.363281 493.085938 536.320312 481.289062 544.167969 C 470.40625 551.324219 454.75 551.917969 442.101562 551.773438 C 437.375 551.96875 431.332031 549.75 426.960938 550.953125 C 417.042969 557.757812 406.417969 563.113281 394.488281 565.300781 C 379.652344 568.050781 362.9375 568.582031 348.503906 563.597656 C 340.609375 560.894531 332.667969 557.195312 326.0625 552.03125 C 322.480469 549.21875 319.007812 546.273438 315.246094 543.667969 C 317.0625 553.496094 319.792969 562.132812 316.160156 572.039062 C 313.445312 579.664062 307.113281 584.261719 300.730469 588.667969 C 285.058594 598.71875 268.230469 606.761719 250.546875 612.585938 C 241.355469 615.542969 231.820312 613.773438 223.140625 610.074219 C 209.832031 604.367188 198.035156 594.3125 188.308594 583.730469 C 166.738281 560.074219 152.078125 530.417969 143.703125 499.648438 C 137.804688 477.40625 135.234375 452.511719 140.683594 429.945312 C 141.230469 426.730469 144.089844 424.992188 146.40625 423.03125 Z M 146.40625 423.03125 " fill-opacity="1" fill-rule="nonzero"/><path fill="#ffe3d4" d="M 384.574219 409.410156 C 381.210938 398.875 378.433594 386.394531 381.886719 375.554688 C 383.882812 370.085938 387.078125 364.3125 393.816406 364.84375 C 402.1875 365.9375 411.722656 372.449219 413.152344 381.28125 C 415.304688 389.03125 417.171875 396.816406 417.84375 404.859375 C 406.382812 404.34375 395.359375 405.242188 384.574219 409.410156 Z M 384.574219 409.410156 " fill-opacity="1" fill-rule="nonzero"/><path fill="#ffe3d4" d="M 273.019531 452.753906 C 270.238281 444.453125 266.75 436.847656 265.078125 428.179688 C 260.835938 405.5 265.800781 382.632812 274.933594 361.804688 C 283.257812 345.285156 293.386719 326.164062 308.65625 315.117188 C 320.453125 306.367188 335.707031 300.285156 350.558594 301.011719 C 368.082031 301.203125 385.664062 310.613281 394.554688 325.890625 C 400.984375 336.777344 404.277344 350.242188 407.621094 362.367188 C 401.175781 359.570312 395.632812 356.480469 388.351562 358.089844 C 380.457031 359.570312 376.535156 367.402344 374.332031 374.332031 C 370.347656 388.550781 374.382812 404.730469 380.488281 417.773438 C 392.691406 412.5625 404.761719 409.632812 418.152344 410.324219 C 417.734375 411.453125 417.316406 412.59375 416.878906 413.71875 C 415.847656 413.886719 414.820312 414.074219 413.796875 414.285156 C 414.820312 414.074219 415.847656 413.886719 416.882812 413.71875 C 414.550781 419.71875 411.480469 425.136719 405.371094 427.9375 C 394.777344 432.519531 383.09375 430.1875 373.707031 423.964844 C 359.625 414.539062 348.597656 400.257812 342.3125 384.5625 C 338.167969 374.945312 336.671875 364.890625 333.328125 355.066406 C 332.429688 363.300781 332.300781 371.503906 334.308594 379.609375 C 339.082031 398.648438 341.765625 419.300781 338.714844 438.824219 C 337.460938 447.347656 334.613281 454.667969 335.449219 463.011719 C 339.773438 458.863281 344.164062 455.46875 347.105469 450.097656 C 351.492188 442.507812 352.246094 434.53125 352.90625 425.957031 C 358.773438 432.425781 364.960938 437.070312 372.886719 440.753906 C 379.027344 442.863281 385.34375 443.890625 391.742188 444.792969 C 392.691406 453.523438 394.457031 461.664062 398.265625 469.625 C 391.628906 480.222656 385.28125 493.796875 385.890625 506.535156 C 388.125 522.214844 398.332031 533.617188 410.097656 543.316406 C 395.566406 550.039062 379.332031 553.222656 363.355469 551.902344 C 348.519531 549.972656 333.230469 543.828125 322.734375 532.84375 C 313.894531 524.0625 307.515625 513.738281 300.972656 503.238281 C 300.761719 513.046875 303.191406 521.457031 307.160156 530.289062 C 296.3125 533.101562 286.828125 537.671875 277.601562 543.972656 C 268.199219 533.632812 260.753906 522.214844 253.699219 510.183594 C 240.597656 488.472656 229.859375 464.863281 223.6875 440.207031 C 234.683594 436.414062 244.746094 428.355469 253.890625 421.328125 C 258.265625 433.773438 264.148438 443.070312 273.019531 452.753906 Z M 347.433594 349.453125 C 346.78125 347.671875 346.09375 345.902344 345.335938 344.160156 C 346.09375 345.902344 346.78125 347.671875 347.433594 349.453125 Z M 377.035156 488.117188 C 378.035156 486.066406 378.855469 483.925781 379.496094 481.726562 C 379.820312 480.628906 380.097656 479.515625 380.328125 478.390625 C 380.097656 479.515625 379.820312 480.628906 379.496094 481.726562 C 378.855469 483.925781 378.035156 486.066406 377.035156 488.117188 C 376.238281 489.605469 375.363281 491.042969 374.414062 492.417969 C 375.363281 491.042969 376.238281 489.605469 377.035156 488.117188 Z M 332.78125 512.292969 C 333.484375 512.351562 334.1875 512.394531 334.890625 512.417969 C 334.1875 512.394531 333.484375 512.351562 332.78125 512.292969 C 331.902344 512.238281 331.035156 512.164062 330.175781 512.0625 C 331.035156 512.164062 331.902344 512.238281 332.78125 512.292969 Z M 331.167969 348.507812 C 331.761719 348 332.382812 347.558594 333.03125 347.167969 C 332.382812 347.554688 331.761719 348 331.167969 348.507812 C 330.570312 349.015625 330.003906 349.585938 329.464844 350.230469 C 330.003906 349.585938 330.570312 349.015625 331.167969 348.507812 Z M 322.898438 472.535156 C 323.535156 472.265625 324.148438 471.972656 324.742188 471.664062 C 324.148438 471.972656 323.535156 472.265625 322.898438 472.535156 C 322.546875 472.683594 322.199219 472.824219 321.84375 472.960938 C 322.199219 472.824219 322.546875 472.683594 322.898438 472.535156 Z M 322.898438 472.535156 " fill-opacity="1" fill-rule="nonzero"/><path fill="#ffe3d4" d="M 636.722656 366.773438 C 614.558594 380.605469 589.835938 390.59375 564.746094 397.75 C 543.496094 403.363281 521.746094 407.285156 499.933594 410.035156 C 492.234375 411.082031 484.648438 411.964844 477.140625 413.914062 C 489.035156 415.117188 500.511719 413.816406 511.589844 419.105469 C 510.804688 419.511719 510.027344 419.921875 509.257812 420.339844 C 510.027344 419.921875 510.804688 419.511719 511.589844 419.105469 C 515.945312 422.003906 519.816406 425.878906 520.945312 431.167969 C 521.941406 436.363281 521.570312 441.898438 521.328125 447.15625 C 520.476562 454.152344 519.191406 460.761719 514.097656 466.003906 C 507.539062 472.664062 498.167969 476.972656 489.40625 479.917969 C 478.8125 483.292969 467.722656 485.804688 456.695312 487.296875 C 451.023438 487.972656 445.074219 488.664062 439.5625 486.734375 C 433.371094 484.613281 427.617188 480.429688 422.363281 476.585938 C 417.121094 472.613281 411.125 468.015625 407.765625 462.273438 C 404.585938 456.933594 404.585938 450.066406 404.167969 444.035156 C 410.644531 441.574219 416.734375 439.964844 421.238281 434.273438 C 425.289062 429.914062 427.941406 423.078125 432.890625 419.832031 C 439.511719 418.527344 447.277344 419.476562 452.820312 423.578125 C 455.988281 425.8125 458.929688 428.402344 462.03125 430.734375 C 459.605469 425.71875 456.96875 420.972656 452.871094 417.097656 C 447.484375 411.855469 440.574219 409.265625 433.644531 406.773438 C 433.339844 402.976562 433.117188 399.179688 432.746094 395.386719 C 430.429688 380.234375 425.222656 365.277344 421.496094 350.367188 C 417.84375 336.25 413.105469 322.675781 404.90625 310.5 C 439.59375 295.800781 470.921875 275.875 501.367188 253.855469 C 518.128906 241.585938 535.152344 229.328125 552.960938 218.601562 C 558.316406 215.289062 564.117188 213.664062 570.402344 213.441406 C 579.46875 212.910156 588.324219 215.320312 593.949219 222.847656 C 604.140625 235.8125 602.035156 256.621094 592.390625 269.34375 C 586.460938 277.078125 577.878906 283.109375 570.066406 288.820312 C 550.148438 302.667969 529.316406 315.308594 507.503906 325.9375 C 487.816406 335.636719 467.367188 343.710938 447.4375 352.941406 C 444.449219 348.519531 441.265625 344.339844 437.375 340.65625 C 437.710938 355.179688 444.109375 366.417969 449.140625 379.527344 C 449.914062 379.945312 450.667969 380.363281 451.441406 380.78125 C 451.359375 374.703125 451.003906 368.769531 450.347656 362.738281 C 461.824219 359.648438 473.574219 357.976562 485.066406 354.96875 C 523.417969 345.558594 558.667969 330.910156 594.722656 315.132812 C 601.777344 312.125 608.464844 308.199219 615.652344 305.515625 C 623.078125 303.3125 631.660156 303.421875 638.796875 306.65625 C 650.613281 311.5625 657.058594 323.640625 656.1875 336.183594 C 655.769531 349.292969 647.621094 360.148438 636.722656 366.773438 Z M 492.910156 428.742188 C 493.734375 428.410156 494.546875 428.0625 495.347656 427.703125 C 494.546875 428.0625 493.734375 428.410156 492.910156 428.742188 C 492.023438 429.097656 491.132812 429.441406 490.238281 429.773438 C 491.132812 429.441406 492.023438 429.097656 492.910156 428.742188 Z M 583.003906 224.28125 C 583.085938 224.566406 583.15625 224.859375 583.214844 225.152344 C 583.15625 224.859375 583.085938 224.566406 583.003906 224.28125 C 582.902344 224.054688 582.789062 223.832031 582.667969 223.613281 C 582.789062 223.832031 582.902344 224.054688 583.003906 224.28125 Z M 481.578125 317.671875 C 484.324219 316.046875 487.078125 314.410156 489.835938 312.765625 C 487.078125 314.410156 484.324219 316.046875 481.578125 317.671875 C 479.351562 318.96875 477.109375 320.265625 474.84375 321.539062 C 477.109375 320.265625 479.351562 318.96875 481.578125 317.671875 Z M 453.800781 331.617188 C 455.015625 331.175781 456.21875 330.710938 457.414062 330.21875 C 456.21875 330.710938 455.015625 331.175781 453.800781 331.617188 C 452.621094 332.019531 451.453125 332.34375 450.292969 332.617188 C 451.453125 332.34375 452.621094 332.019531 453.800781 331.617188 Z M 465.960938 435.640625 C 463.441406 435.945312 460.914062 436.160156 458.382812 436.285156 C 460.914062 436.160156 463.441406 435.945312 465.960938 435.640625 C 467.640625 435.4375 469.3125 435.195312 470.980469 434.910156 C 469.3125 435.195312 467.640625 435.4375 465.960938 435.640625 Z M 607.96875 355.691406 C 604.828125 357.316406 601.660156 358.875 598.460938 360.375 C 601.660156 358.875 604.828125 357.316406 607.96875 355.691406 C 608.976562 355.15625 609.996094 354.597656 611.019531 354.019531 C 609.996094 354.597656 608.976562 355.15625 607.96875 355.691406 Z M 641.628906 313.722656 C 641.835938 314.328125 642.023438 314.933594 642.179688 315.542969 C 642.023438 314.933594 641.835938 314.328125 641.628906 313.722656 Z M 641.628906 313.722656 " fill-opacity="1" fill-rule="nonzero"/><path fill="#ffe3d4" d="M 406.898438 521.039062 C 402.992188 516.183594 398.667969 509.796875 398.332031 503.414062 C 398.539062 494.808594 402.171875 486.027344 406.351562 478.597656 C 414.917969 484.660156 422.539062 491.351562 431.925781 496.480469 C 443.980469 502.480469 455.457031 500.375 468.203125 498.605469 C 475.808594 497.414062 483.136719 495.113281 490.707031 493.796875 C 489.824219 501.339844 487.863281 508.175781 484.761719 515.089844 C 481.691406 522.277344 478.042969 529.964844 470.519531 533.390625 C 462.515625 536.929688 452.308594 536.769531 443.691406 536.785156 C 429.757812 536.816406 415.964844 531.992188 406.898438 521.039062 Z M 433.695312 511.921875 C 433.972656 512.265625 434.265625 512.597656 434.570312 512.917969 C 434.265625 512.597656 433.972656 512.265625 433.695312 511.921875 C 433.457031 511.640625 433.238281 511.355469 433.042969 511.066406 C 433.238281 511.355469 433.457031 511.640625 433.695312 511.921875 Z M 431.230469 505.496094 C 431.1875 504.847656 431.183594 504.1875 431.207031 503.523438 C 431.183594 504.1875 431.1875 504.847656 431.230469 505.496094 Z M 431.230469 505.496094 " fill-opacity="1" fill-rule="nonzero"/><path fill="#6d6d6d" d="M 159.488281 432.90625 C 177.285156 422.628906 195.0625 412.367188 213.257812 402.816406 C 214.558594 402.011719 215.875 401.625 217.226562 401.65625 C 225.859375 403.054688 232.980469 407.832031 238.796875 414.167969 C 232.722656 418.0625 226.550781 421.90625 220.214844 425.378906 C 217.417969 419.652344 217.726562 414.105469 217.820312 407.929688 C 214.605469 410.953125 211.585938 413.558594 210.71875 418.175781 C 208.242188 429.320312 210.300781 442.042969 212.96875 453.027344 C 217.097656 469.496094 223.464844 485.449219 231.292969 500.488281 C 234.539062 506.902344 239.183594 513.09375 240.453125 520.125 C 242.414062 529.46875 241.210938 540.386719 236.964844 548.976562 C 230.566406 561.152344 214.832031 564.722656 202.746094 559.527344 C 189.773438 554.027344 181.1875 541.964844 174.261719 530.222656 C 167.316406 519.417969 163.027344 507.628906 159.199219 495.40625 C 154.023438 478.292969 151.386719 460.890625 153.976562 443.039062 C 154.988281 439.273438 155.566406 434.738281 159.488281 432.90625 Z M 196.941406 543.027344 C 205.796875 549.136719 218.433594 547.125 224.394531 537.992188 C 232.351562 526.074219 226.164062 509.316406 213.175781 504.121094 C 204.738281 500.566406 194.691406 503.800781 189.835938 511.535156 C 183.566406 521.84375 186.863281 536.351562 196.941406 543.027344 Z M 196.941406 543.027344 " fill-opacity="1" fill-rule="nonzero"/><path fill="#ffffff" d="M 209.898438 510.601562 C 217.371094 512.597656 221.035156 521.136719 219.316406 528.308594 C 218.0625 533.777344 213.433594 538.378906 207.535156 537.78125 C 198.019531 536.707031 192.875 525.335938 196.859375 517.003906 C 199.113281 511.855469 204.449219 509.269531 209.898438 510.601562 Z M 209.898438 510.601562 " fill-opacity="1" fill-rule="nonzero"/><path fill="#6d6d6d" d="M 240.535156 557.371094 C 247.140625 549.296875 248.363281 539.132812 249.003906 529.066406 C 257.652344 540.277344 268.070312 551.96875 280.414062 559.125 C 285.460938 562.164062 290.972656 563.371094 296.808594 563.707031 C 293.59375 560.460938 290.265625 557.324219 287.117188 554.011719 C 291.28125 552 295.425781 549.988281 299.574219 547.964844 C 302.5 554.507812 304.136719 560.523438 304.554688 567.746094 C 289.863281 579.695312 272.3125 588.539062 254.886719 595.730469 C 250.257812 597.355469 246.625 599.832031 241.546875 598.398438 C 223.335938 594.394531 207.695312 578.84375 195.960938 565.109375 C 210.910156 571.652344 229.683594 570.882812 240.535156 557.371094 Z M 240.535156 557.371094 " fill-opacity="1" fill-rule="nonzero"/><path fill="#e5b1a3" d="M 570.066406 288.820312 C 550.148438 302.667969 529.316406 315.308594 507.503906 325.9375 C 487.816406 335.636719 467.367188 343.710938 447.4375 352.941406 C 444.449219 348.519531 441.265625 344.339844 437.375 340.65625 C 437.710938 355.179688 444.109375 366.417969 449.140625 379.527344 C 448.933594 382.324219 448.625 385.09375 448.304688 387.875 C 441.523438 377.902344 436.972656 367.304688 431.699219 356.289062 C 427.890625 348.308594 425.398438 339.914062 423.164062 331.40625 C 433.710938 333.273438 443.304688 335.203125 453.800781 331.617188 C 463.496094 328.09375 472.671875 322.851562 481.578125 317.671875 C 505 303.792969 529.125 289.351562 550.421875 272.382812 C 561.128906 263.796875 571.511719 254.613281 578.679688 242.757812 C 581.832031 237.5 584.726562 230.4375 583.003906 224.28125 C 580.800781 219.453125 574.664062 216.253906 570.402344 213.441406 C 579.46875 212.910156 588.324219 215.320312 593.949219 222.847656 C 604.140625 235.8125 602.035156 256.621094 592.390625 269.34375 C 586.460938 277.078125 577.878906 283.109375 570.066406 288.820312 Z M 570.066406 288.820312 " fill-opacity="1" fill-rule="nonzero"/><path fill="#e5b1a3" d="M 636.722656 366.773438 C 614.558594 380.605469 589.835938 390.59375 564.746094 397.75 C 543.496094 403.363281 521.746094 407.285156 499.933594 410.035156 C 492.234375 411.082031 484.648438 411.964844 477.140625 413.914062 C 489.035156 415.117188 500.511719 413.816406 511.589844 419.105469 C 505.320312 422.339844 499.5 426.101562 492.910156 428.742188 C 480.371094 433.773438 466.824219 436.394531 453.320312 436.414062 C 450.1875 436.574219 446.519531 436.285156 443.578125 437.488281 C 437.34375 440.898438 433.933594 448.84375 436.925781 455.550781 C 439.914062 461.792969 446.265625 465.378906 452.695312 467.164062 C 463.992188 470.234375 476.304688 470.007812 487.558594 466.824219 C 500.640625 463.367188 511.203125 455.855469 521.328125 447.15625 C 520.476562 454.152344 519.191406 460.761719 514.097656 466.003906 C 507.539062 472.664062 498.167969 476.972656 489.40625 479.917969 C 478.8125 483.292969 467.722656 485.804688 456.695312 487.296875 C 451.023438 487.972656 445.074219 488.664062 439.5625 486.734375 C 433.371094 484.613281 427.617188 480.429688 422.363281 476.585938 C 417.121094 472.613281 411.125 468.015625 407.765625 462.273438 C 404.585938 456.933594 404.585938 450.066406 404.167969 444.035156 C 410.644531 441.574219 416.734375 439.964844 421.238281 434.273438 C 425.289062 429.914062 427.941406 423.078125 432.890625 419.832031 C 439.511719 418.527344 447.277344 419.476562 452.820312 423.578125 C 455.988281 425.8125 458.929688 428.402344 462.03125 430.734375 C 459.605469 425.71875 456.96875 420.972656 452.871094 417.097656 C 447.484375 411.855469 440.574219 409.265625 433.644531 406.773438 C 433.339844 402.976562 433.117188 399.179688 432.746094 395.386719 C 433.117188 397.539062 433.515625 399.695312 433.933594 401.851562 C 464.089844 399.277344 493.84375 394.546875 523.066406 386.539062 C 552.0625 378.675781 581.1875 369.554688 607.96875 355.691406 C 620.890625 348.824219 635.339844 338.582031 641.464844 324.828125 C 644.519531 318.089844 641.207031 312.863281 638.796875 306.65625 C 650.613281 311.5625 657.058594 323.640625 656.1875 336.183594 C 655.769531 349.292969 647.621094 360.148438 636.722656 366.773438 Z M 636.722656 366.773438 " fill-opacity="1" fill-rule="nonzero"/><path fill="#e5b1a3" d="M 405.371094 427.9375 C 394.777344 432.519531 383.09375 430.1875 373.707031 423.964844 C 359.625 414.539062 348.597656 400.257812 342.3125 384.5625 C 338.167969 374.945312 336.671875 364.890625 333.328125 355.066406 C 332.429688 363.300781 332.300781 371.503906 334.308594 379.609375 C 339.082031 398.648438 341.765625 419.300781 338.714844 438.824219 C 337.460938 447.347656 334.613281 454.667969 335.449219 463.011719 C 331.609375 466.824219 327.992188 470.378906 322.898438 472.535156 C 313.847656 476.410156 303.414062 474.980469 294.734375 470.828125 C 285.941406 466.664062 279.144531 460.183594 273.019531 452.753906 C 270.238281 444.453125 266.75 436.847656 265.078125 428.179688 C 271.925781 433.984375 278.453125 439.019531 287.953125 438.777344 C 299.492188 438.953125 308.589844 431.3125 313.558594 421.390625 C 320.824219 406.933594 319.730469 390.398438 321.882812 374.78125 C 322.960938 367.046875 324.246094 357.863281 328.683594 351.253906 C 332.734375 345.496094 338.824219 344.707031 345.335938 344.160156 C 349.371094 353.457031 351.507812 363.429688 355.863281 372.628906 C 358.984375 379.945312 363.417969 386.394531 367.355469 393.246094 C 371.617188 400.5625 370.75 411.546875 377.019531 417.386719 C 381.4375 421.710938 387.175781 421.777344 392.816406 420.199219 C 400.824219 417.820312 408.601562 415.054688 416.882812 413.71875 C 414.550781 419.71875 411.480469 425.136719 405.371094 427.9375 Z M 405.371094 427.9375 " fill-opacity="1" fill-rule="nonzero"/><path fill="#e5b1a3" d="M 282.148438 513.785156 C 291.085938 510.070312 294.574219 502.160156 298.191406 493.84375 C 307.207031 504.332031 318.71875 511.453125 332.78125 512.292969 C 350.785156 513.820312 368.5625 503.992188 377.035156 488.117188 C 382.257812 477.390625 382.59375 464.269531 378.238281 453.1875 C 376.617188 448.988281 374.65625 444.902344 372.886719 440.753906 C 379.027344 442.863281 385.34375 443.890625 391.742188 444.792969 C 392.691406 453.523438 394.457031 461.664062 398.265625 469.625 C 391.628906 480.222656 385.28125 493.796875 385.890625 506.535156 C 388.125 522.214844 398.332031 533.617188 410.097656 543.316406 C 395.566406 550.039062 379.332031 553.222656 363.355469 551.902344 C 348.519531 549.972656 333.230469 543.828125 322.734375 532.84375 C 313.894531 524.0625 307.515625 513.738281 300.972656 503.238281 C 300.761719 513.046875 303.191406 521.457031 307.160156 530.289062 C 296.3125 533.101562 286.828125 537.671875 277.601562 543.972656 C 268.199219 533.632812 260.753906 522.214844 253.699219 510.183594 C 263.132812 513.753906 272.007812 517.792969 282.148438 513.785156 Z M 282.148438 513.785156 " fill-opacity="1" fill-rule="nonzero"/><path fill="#e5b1a3" d="M 406.898438 521.039062 C 402.992188 516.183594 398.667969 509.796875 398.332031 503.414062 C 398.539062 494.808594 402.171875 486.027344 406.351562 478.597656 C 414.917969 484.660156 422.539062 491.351562 431.925781 496.480469 C 431.429688 501.820312 429.882812 507.417969 433.695312 511.921875 C 439.671875 519.253906 450.925781 521.152344 459.847656 521.007812 C 468.832031 521.121094 476.449219 517.953125 484.761719 515.089844 C 481.691406 522.277344 478.042969 529.964844 470.519531 533.390625 C 462.515625 536.929688 452.308594 536.769531 443.691406 536.785156 C 429.757812 536.816406 415.964844 531.992188 406.898438 521.039062 Z M 406.898438 521.039062 " fill-opacity="1" fill-rule="nonzero"/></svg>