<svg xmlns="http://www.w3.org/2000/svg" xmlns:xlink="http://www.w3.org/1999/xlink" width="1080" zoomAndPan="magnify" viewBox="0 0 810 809.999993" height="1080" preserveAspectRatio="xMidYMid meet" version="1.0"><path fill="#5e3528" d="M 153.339844 376.152344 C 152.832031 383.0625 150.574219 389.78125 149.875 396.710938 C 147.722656 412.285156 149.347656 430.121094 157.246094 444.003906 C 164.386719 456.15625 176.828125 463.550781 189.117188 469.636719 C 187.660156 492.25 195.371094 515.683594 209.226562 533.519531 C 221.308594 548.480469 238.796875 552.136719 257.105469 553.042969 C 268.40625 554.3125 279.285156 552.324219 290.476562 551.671875 C 302.074219 559.402344 313.941406 566.1875 327.585938 569.609375 C 353.269531 575.71875 379.691406 576.078125 404.109375 564.898438 C 417.5 559.761719 427.085938 550.402344 438.511719 542.289062 C 435.769531 555.347656 432.199219 566.992188 437.160156 580.175781 C 440.816406 590.257812 449.136719 596.152344 457.605469 601.984375 C 475.328125 613.332031 494.1875 622.691406 513.914062 629.984375 C 525.191406 634.757812 536.703125 636.894531 548.742188 633.535156 C 571.488281 627.46875 591.914062 610.121094 607.246094 592.792969 C 632.042969 564.769531 649.128906 531.59375 660.386719 496.050781 C 669.933594 465.515625 675.066406 430.96875 668.941406 399.269531 C 667.863281 394.875 667.78125 390.183594 663.871094 387.246094 C 646.214844 372.792969 624.863281 361.972656 604.839844 351.132812 C 593.074219 345.238281 580.402344 337.3125 567.414062 335.199219 C 563.527344 334.417969 560.210938 335.75 556.683594 337.207031 C 544.265625 342.765625 533.492188 350.730469 523.480469 359.859375 C 523.757812 349.230469 524.074219 338.960938 521.644531 328.5 C 516.40625 306.945312 507.621094 286.195312 497.125 266.691406 C 483.628906 241.820312 463.941406 221.003906 437.585938 209.867188 C 409.746094 197.125 376.925781 197.359375 349.679688 211.621094 C 332.886719 197.125 313.011719 188.082031 291.574219 182.800781 C 269.925781 177.644531 248.066406 173.375 226.101562 179.523438 C 204.304688 186.160156 188.90625 205.640625 184.726562 227.660156 C 182.742188 240.085938 186.625 251.222656 192.539062 261.9375 C 180.542969 262.085938 169.75 264.304688 161.050781 273.15625 C 140.054688 293.867188 135.027344 328.839844 143.75 356.226562 C 145.671875 363.621094 150.066406 369.433594 153.339844 376.152344 Z M 153.339844 376.152344 " fill-opacity="1" fill-rule="nonzero"/><path fill="#ffe3d4" d="M 322.769531 364.761719 C 331.136719 365.375 338.105469 368.398438 345.960938 370.953125 C 348.75 357.554688 352.890625 342.699219 351.09375 329.007812 C 349.933594 320.746094 343.746094 313.117188 335.191406 311.996094 C 325.917969 312.144531 314.34375 316.414062 310.859375 325.816406 C 306.59375 338.410156 303.910156 351.660156 302.9375 364.929688 C 309.507812 364.785156 316.203125 364.339844 322.769531 364.761719 Z M 322.769531 364.761719 " fill-opacity="1" fill-rule="nonzero"/><path fill="#ffe3d4" d="M 558.542969 406.792969 C 543.96875 401.53125 530.769531 391.238281 518.667969 381.75 C 515.984375 388.175781 513.746094 394.601562 510.304688 400.707031 C 505.847656 408.820312 500.039062 415.246094 494.714844 422.746094 C 497.417969 412.496094 501.769531 402.90625 504.136719 392.570312 C 510.683594 357.007812 501.75 321.210938 484.175781 290.167969 C 473.679688 270.640625 462.148438 252.703125 443.519531 239.960938 C 428.671875 229.941406 410.402344 223.035156 392.300781 223.835938 C 368.035156 223.941406 344.210938 237.316406 332.636719 258.871094 C 324.714844 273.539062 320.617188 290.886719 316.203125 306.902344 C 324.335938 304.179688 331.8125 301.007812 340.578125 302.996094 C 352.550781 305.890625 360.324219 317.109375 361.339844 329.050781 C 362.585938 346.738281 358.507812 364.65625 349.152344 379.765625 C 340.027344 378.5625 331.8125 374.417969 322.730469 373.234375 C 316.625 372.433594 310.375 372.328125 304.25 372.136719 C 305.304688 374.1875 306.402344 376.214844 307.5 378.242188 C 310.414062 383.082031 313.308594 387.710938 318.609375 390.183594 C 332.359375 396.480469 347.925781 394.070312 360.410156 386.019531 C 379.039062 373.933594 393.714844 355.230469 402.1875 334.777344 C 407.992188 321.800781 410.0625 308.234375 414.457031 294.859375 C 415.617188 306.207031 415.808594 317.449219 412.871094 328.5625 C 407 351.914062 404.128906 375.644531 406.683594 399.714844 C 408.035156 412.179688 412.449219 424.375 412.261719 436.628906 C 404.824219 430.734375 398.089844 424.691406 394.308594 415.753906 C 390.253906 406.8125 389.386719 397.683594 388.710938 388.007812 C 381.570312 395.867188 374.011719 401.742188 364.632812 406.769531 C 364.03125 408.289062 363.398438 409.792969 362.757812 411.292969 C 363.398438 409.792969 364.03125 408.289062 364.632812 406.769531 C 355.929688 409.835938 346.914062 411.484375 337.789062 412.730469 C 336.457031 424.269531 334.367188 435.023438 328.683594 445.273438 C 337.070312 457.253906 343.300781 471.519531 345.242188 486.078125 C 346.933594 499.074219 341.1875 510.039062 334.429688 520.605469 C 328.769531 529.355469 321.273438 535.484375 313.519531 542.265625 C 332.296875 550.847656 352.828125 554.859375 373.441406 553.636719 C 392.175781 551.796875 411.710938 544.570312 425.546875 531.488281 C 438.300781 519.316406 448.3125 504.992188 456.613281 489.5 C 457.140625 502.199219 453.824219 513.464844 448.945312 525.023438 C 463.117188 528.867188 475.664062 534.890625 487.871094 543.007812 C 499.382812 530.117188 508.992188 515.808594 517.675781 500.890625 C 516.5625 501.191406 515.457031 501.5 514.359375 501.808594 C 515.457031 501.5 516.5625 501.191406 517.675781 500.890625 C 535.625 471.773438 550.136719 440.03125 558.542969 406.792969 Z M 352 381.289062 C 352.605469 381.035156 353.175781 380.742188 353.71875 380.402344 C 353.175781 380.742188 352.605469 381.035156 352 381.289062 Z M 359.667969 372.726562 C 359.539062 373.058594 359.402344 373.382812 359.261719 373.699219 C 359.402344 373.382812 359.539062 373.058594 359.667969 372.726562 C 360.515625 370.53125 361.222656 368.328125 361.894531 366.144531 C 361.222656 368.328125 360.515625 370.53125 359.667969 372.726562 Z M 370.84375 345.742188 C 370.425781 346.273438 370.03125 346.804688 369.65625 347.34375 C 370.03125 346.804688 370.425781 346.273438 370.84375 345.742188 C 371.753906 344.519531 372.636719 343.285156 373.496094 342.042969 C 372.636719 343.285156 371.753906 344.519531 370.84375 345.742188 Z M 420.453125 443.210938 C 422.679688 444.867188 424.984375 446.40625 427.417969 447.726562 C 424.984375 446.40625 422.679688 444.871094 420.453125 443.210938 Z M 429.835938 499.257812 C 431.46875 498.800781 433.082031 498.273438 434.675781 497.679688 C 433.082031 498.273438 431.46875 498.800781 429.835938 499.257812 Z M 435.542969 450.988281 C 437.269531 451.441406 439.019531 451.757812 440.789062 451.953125 C 439.019531 451.757812 437.269531 451.441406 435.542969 450.988281 Z M 462.949219 475.976562 C 461.507812 478.03125 459.953125 479.964844 458.300781 481.785156 C 459.953125 479.964844 461.507812 478.027344 462.949219 475.976562 Z M 476.828125 404.871094 C 477.332031 404.875 477.835938 404.871094 478.328125 404.855469 C 477.835938 404.871094 477.332031 404.875 476.828125 404.871094 Z M 476.828125 404.871094 " fill-opacity="1" fill-rule="nonzero"/><path fill="#ffe3d4" d="M 252.863281 485.378906 C 237.359375 484.324219 222.59375 480.394531 207.535156 476.90625 C 208.824219 485.824219 210.9375 494.382812 214.441406 502.707031 C 218.476562 512.386719 223.1875 523.691406 233.113281 528.617188 C 243.90625 533.917969 258.164062 533.582031 269.949219 533.625 C 288.703125 533.558594 307.332031 526.691406 318.992188 511.476562 C 323.953125 504.820312 329.464844 496.453125 328.8125 487.8125 C 328.199219 477.179688 323.742188 466.425781 318.632812 457.210938 C 307.394531 464.925781 297.765625 473.671875 285.554688 480.140625 C 285.8125 481.082031 286.097656 482.0625 286.382812 483.066406 C 286.097656 482.0625 285.8125 481.082031 285.554688 480.140625 C 275.375 485.699219 264.226562 486.796875 252.863281 485.378906 Z M 252.863281 485.378906 " fill-opacity="1" fill-rule="nonzero"/><path fill="#ffe3d4" d="M 233.175781 270.769531 C 252.863281 282.136719 274.363281 291.4375 295.398438 300.015625 C 298.335938 289.957031 300.933594 279.8125 304.164062 269.925781 C 303.28125 269.585938 302.394531 269.253906 301.511719 268.929688 C 302.394531 269.253906 303.28125 269.585938 304.164062 269.925781 C 307.839844 259.105469 312.527344 248.285156 318.96875 238.839844 C 323.109375 232.667969 329.042969 227.429688 334.09375 221.933594 C 315.273438 208.8125 291.429688 201.945312 269.230469 197.019531 C 252.355469 193.914062 232.648438 192.644531 218.667969 204.480469 C 211.632812 211.285156 205.890625 220.328125 204.261719 230.070312 C 202.933594 238.269531 205.59375 246.65625 210.703125 253.082031 C 216.511719 260.457031 225.152344 266.078125 233.175781 270.769531 Z M 262.132812 254.496094 C 262.992188 254.902344 263.855469 255.296875 264.714844 255.679688 C 263.855469 255.296875 262.992188 254.902344 262.132812 254.496094 C 258.753906 252.910156 255.414062 251.210938 252.136719 249.394531 C 255.414062 251.210938 258.753906 252.910156 262.132812 254.496094 Z M 262.132812 254.496094 " fill-opacity="1" fill-rule="nonzero"/><path fill="#ffe3d4" d="M 197.609375 382.429688 C 227.117188 392.632812 259.980469 397.875 290.710938 390.226562 C 285.28125 375.855469 282.769531 361.105469 284.078125 345.722656 C 286.191406 332.980469 289.949219 321 293.035156 308.53125 C 270.730469 302.382812 247.328125 295.875 226.3125 286.109375 C 219.617188 283.089844 213.324219 278.652344 206.121094 277.722656 C 197.523438 276.453125 186.816406 276.222656 178.960938 280.574219 C 169.75 286.257812 164.429688 297.921875 161.578125 307.960938 C 157.753906 324.761719 157.417969 342.214844 164.957031 358.0625 C 171.652344 370.761719 184.597656 377.695312 197.609375 382.429688 Z M 197.609375 382.429688 " fill-opacity="1" fill-rule="nonzero"/><path fill="#ffe3d4" d="M 282.09375 411.167969 C 250.285156 416.070312 218.75 410.851562 188.886719 399.542969 C 182.023438 396.925781 175.835938 392.847656 168.949219 390.394531 C 166.5625 398.382812 166.984375 407.53125 167.679688 415.773438 C 168.675781 424.773438 169.433594 433.101562 176.109375 439.882812 C 186.480469 450.597656 202.109375 457.023438 216.257812 460.996094 C 231.636719 465.15625 247.625 468.835938 263.589844 469.511719 C 275.480469 469.996094 284.796875 463.445312 294.089844 457 C 301.566406 451.527344 309.78125 445.503906 315.253906 437.941406 C 320.871094 430.164062 320.742188 420.695312 321.523438 411.503906 C 315.632812 409.453125 309.65625 406.601562 303.488281 405.609375 C 296.265625 406.074219 289.125 409.453125 282.09375 411.167969 Z M 241.132812 444.980469 C 242.5625 444.929688 243.984375 444.84375 245.402344 444.71875 C 243.984375 444.84375 242.5625 444.929688 241.132812 444.980469 Z M 267.773438 439.082031 C 264.601562 440.507812 261.300781 441.660156 257.910156 442.558594 C 261.300781 441.660156 264.601562 440.507812 267.773438 439.082031 C 268.894531 438.542969 269.941406 437.957031 270.921875 437.332031 C 269.941406 437.957031 268.894531 438.542969 267.773438 439.082031 Z M 285.847656 412.828125 C 286.0625 412.09375 286.273438 411.359375 286.484375 410.617188 C 286.273438 411.359375 286.0625 412.09375 285.847656 412.828125 Z M 285.847656 412.828125 " fill-opacity="1" fill-rule="nonzero"/><path fill="#6d6d6d" d="M 538.835938 372.601562 C 546.609375 377.566406 554.507812 382.324219 562.34375 387.183594 C 567.496094 379.851562 566.0625 372.621094 566.335938 364.210938 C 579.050781 374.1875 577.402344 388.703125 576.433594 403.222656 C 571.976562 437.328125 557.488281 470.988281 540.464844 500.660156 C 533.09375 515.070312 534.105469 533.984375 540.570312 548.5625 C 548.300781 565.003906 568.828125 570.246094 584.964844 563.925781 C 602.03125 557.269531 613.898438 541.273438 622.875 525.972656 C 632.210938 511.5 638.230469 495.652344 643.300781 479.253906 C 649.910156 457 653.628906 434.117188 650.207031 410.933594 C 649.003906 406.074219 648.136719 399.777344 643.175781 397.347656 C 621.734375 384.859375 600.214844 372.496094 578.3125 360.832031 C 574.871094 359.054688 571.382812 356.816406 567.605469 355.886719 C 556.136719 357.789062 546.398438 363.894531 538.835938 372.601562 Z M 603.191406 500.722656 C 611.976562 515.195312 606.105469 535.0625 591.449219 543.175781 C 579.578125 549.769531 564.011719 546.089844 556.980469 534.277344 C 547.582031 518.410156 555.671875 497.023438 572.734375 490.558594 C 583.867188 486.058594 596.984375 490.496094 603.191406 500.722656 Z M 603.191406 500.722656 " fill-opacity="1" fill-rule="nonzero"/><path fill="#ffffff" d="M 568.722656 530.855469 C 572.695312 534.808594 578.714844 536.136719 583.886719 533.855469 C 594.871094 529.398438 599.050781 514.835938 592.292969 505.117188 C 588.554688 499.433594 581.585938 497.46875 575.25 499.625 C 563.125 504.082031 560.019531 521.789062 568.722656 530.855469 Z M 568.722656 530.855469 " fill-opacity="1" fill-rule="nonzero"/><path fill="#6d6d6d" d="M 536.621094 560.945312 C 527.515625 549.851562 526.460938 537.320312 524.960938 523.628906 C 514.082031 538.101562 501.09375 552.410156 485.632812 562.023438 C 478.578125 566.523438 470.976562 568.511719 462.675781 569.039062 C 466.773438 564.6875 471.058594 560.546875 475.15625 556.171875 C 469.625 553.570312 464.152344 550.886719 458.578125 548.414062 C 455.09375 556.847656 452.664062 565.171875 452.328125 574.363281 C 473.617188 591.4375 498.875 603.949219 524.265625 613.667969 C 531.191406 617.007812 538.835938 613.773438 545.511719 611.324219 C 564.964844 603.082031 581.753906 586.601562 595.144531 570.5625 C 575.988281 579.585938 550.644531 578.359375 536.621094 560.945312 Z M 536.621094 560.945312 " fill-opacity="1" fill-rule="nonzero"/><path fill="#e5b1a3" d="M 233.175781 270.769531 C 252.863281 282.136719 274.363281 291.4375 295.398438 300.015625 C 298.335938 289.957031 300.933594 279.8125 304.164062 269.925781 C 290.011719 264.515625 275.882812 260.984375 262.132812 254.496094 C 250.117188 248.855469 238.625 241.777344 228.488281 233.175781 C 224.601562 229.710938 219.976562 225.335938 218.414062 220.242188 C 217.292969 215.234375 218.351562 209.574219 218.667969 204.480469 C 211.632812 211.285156 205.890625 220.328125 204.261719 230.070312 C 202.933594 238.269531 205.59375 246.65625 210.703125 253.082031 C 216.511719 260.457031 225.152344 266.078125 233.175781 270.769531 Z M 233.175781 270.769531 " fill-opacity="1" fill-rule="nonzero"/><path fill="#e5b1a3" d="M 318.609375 390.183594 C 332.359375 396.480469 347.925781 394.070312 360.410156 386.019531 C 379.039062 373.933594 393.714844 355.230469 402.1875 334.777344 C 407.992188 321.800781 410.0625 308.234375 414.457031 294.859375 C 415.617188 306.207031 415.808594 317.449219 412.871094 328.5625 C 407 351.914062 404.128906 375.644531 406.683594 399.714844 C 408.035156 412.179688 412.449219 424.375 412.261719 436.628906 C 418.40625 441.703125 424.574219 447.046875 432.136719 449.902344 C 441.109375 453.304688 451.101562 452.625 460.140625 449.773438 C 474.335938 445.082031 486.773438 435.445312 494.714844 422.746094 C 497.417969 412.496094 501.769531 402.90625 504.136719 392.570312 C 496.089844 399.417969 487.894531 405.015625 476.828125 404.871094 C 462.296875 405.207031 450.046875 396.207031 443.433594 383.695312 C 432.28125 363.199219 434.5625 339.867188 431.101562 317.449219 C 429.558594 307.726562 427.574219 295.515625 420.984375 287.84375 C 415.195312 281.417969 407.824219 281.460938 399.863281 280.722656 C 393.167969 303.902344 385.414062 326.175781 370.84375 345.742188 C 364.378906 353.941406 363.28125 363.347656 359.667969 372.726562 C 357.601562 378.011719 353.859375 381.730469 347.988281 382.257812 C 334.597656 383.316406 320.617188 380.925781 307.5 378.242188 C 310.414062 383.082031 313.308594 387.710938 318.609375 390.183594 Z M 318.609375 390.183594 " fill-opacity="1" fill-rule="nonzero"/><path fill="#e5b1a3" d="M 197.609375 382.429688 C 227.117188 392.632812 259.980469 397.875 290.710938 390.226562 C 285.28125 375.855469 282.769531 361.105469 284.078125 345.722656 C 283.339844 350.203125 282.707031 354.703125 282.113281 359.203125 C 254.71875 359.902344 227.515625 355.507812 201.558594 346.800781 C 188.949219 342.488281 177.355469 337.398438 168.863281 326.640625 C 164.324219 321.253906 162.253906 314.914062 161.578125 307.960938 C 157.753906 324.761719 157.417969 342.214844 164.957031 358.0625 C 171.652344 370.761719 184.597656 377.695312 197.609375 382.429688 Z M 197.609375 382.429688 " fill-opacity="1" fill-rule="nonzero"/><path fill="#e5b1a3" d="M 282.09375 411.167969 L 286.484375 410.617188 C 283.085938 422.472656 279.75 433.332031 267.773438 439.082031 C 247.476562 448.210938 221.878906 446.179688 201.769531 437.433594 C 188.738281 432.066406 179.363281 423.167969 167.679688 415.773438 C 168.675781 424.773438 169.433594 433.101562 176.109375 439.882812 C 186.480469 450.597656 202.109375 457.023438 216.257812 460.996094 C 231.636719 465.15625 247.625 468.835938 263.589844 469.511719 C 275.480469 469.996094 284.796875 463.445312 294.089844 457 C 301.566406 451.527344 309.78125 445.503906 315.253906 437.941406 C 320.871094 430.164062 320.742188 420.695312 321.523438 411.503906 C 315.632812 409.457031 309.65625 406.601562 303.488281 405.609375 C 296.265625 406.074219 289.125 409.457031 282.09375 411.167969 Z M 282.09375 411.167969 " fill-opacity="1" fill-rule="nonzero"/><path fill="#e5b1a3" d="M 482.632812 502.898438 C 471.25 497.550781 466.625 487.324219 462.949219 475.976562 C 446.539062 499.328125 415.597656 507.695312 389.324219 497.023438 C 377.453125 491.953125 366.449219 482.632812 360.007812 471.414062 C 352.46875 457.359375 351.539062 439.757812 357.09375 424.859375 C 359.351562 418.730469 362.226562 412.835938 364.632812 406.769531 C 355.929688 409.835938 346.914062 411.484375 337.789062 412.730469 C 336.457031 424.269531 334.367188 435.023438 328.683594 445.273438 C 337.070312 457.253906 343.300781 471.519531 345.242188 486.078125 C 346.933594 499.074219 341.1875 510.039062 334.429688 520.605469 C 328.769531 529.355469 321.273438 535.484375 313.519531 542.265625 C 332.296875 550.847656 352.828125 554.859375 373.441406 553.636719 C 392.175781 551.796875 411.710938 544.570312 425.546875 531.488281 C 438.300781 519.316406 448.3125 504.992188 456.613281 489.5 C 457.140625 502.199219 453.824219 513.464844 448.945312 525.023438 C 463.117188 528.867188 475.664062 534.890625 487.871094 543.007812 C 499.382812 530.117188 508.992188 515.808594 517.675781 500.890625 C 505.824219 504.082031 494.671875 508.351562 482.632812 502.898438 Z M 482.632812 502.898438 " fill-opacity="1" fill-rule="nonzero"/><path fill="#e5b1a3" d="M 318.992188 511.476562 C 323.953125 504.820312 329.464844 496.453125 328.8125 487.8125 C 328.199219 477.179688 323.742188 466.425781 318.632812 457.210938 C 307.394531 464.925781 297.765625 473.671875 285.554688 480.140625 C 286.71875 484.449219 288.554688 489.542969 287.902344 494.042969 C 286.359375 501.101562 280.402344 506.003906 274.046875 508.773438 C 264.4375 512.957031 252.96875 513.464844 242.660156 512.449219 C 232.246094 511.308594 223.800781 506.933594 214.441406 502.707031 C 218.476562 512.386719 223.1875 523.691406 233.113281 528.617188 C 243.90625 533.917969 258.164062 533.582031 269.949219 533.625 C 288.703125 533.558594 307.332031 526.691406 318.992188 511.476562 Z M 318.992188 511.476562 " fill-opacity="1" fill-rule="nonzero"/></svg>