<svg xmlns="http://www.w3.org/2000/svg" xmlns:xlink="http://www.w3.org/1999/xlink" width="1080" zoomAndPan="magnify" viewBox="0 0 810 809.999993" height="1080" preserveAspectRatio="xMidYMid meet" version="1.0"><path fill="#5e3528" d="M 663.59375 423.03125 C 649.933594 412.769531 634.242188 404.679688 619.183594 396.671875 C 610.664062 392.394531 602.191406 387.132812 592.691406 385.71875 C 589.734375 385.238281 587.292969 386.296875 584.640625 387.425781 C 575.253906 391.703125 566.796875 397.71875 559.453125 404.9375 C 561.445312 387.90625 556.960938 371.902344 550 356.542969 C 543.328125 338.546875 533.394531 320.085938 519.332031 306.800781 C 499.609375 288.5 471.992188 279.121094 445.359375 285.105469 C 434.636719 287.308594 425.589844 292.617188 416.554688 298.535156 C 409.933594 294.109375 402.761719 290.992188 395.707031 287.40625 C 371.53125 275.246094 348.789062 261.027344 326.703125 245.429688 C 312.523438 235.472656 298.78125 224.972656 284.21875 215.578125 C 276.742188 210.867188 270.554688 205.480469 262.421875 201.90625 C 247.214844 195.007812 228.796875 194.765625 214.183594 203.324219 C 202.320312 210.046875 193.867188 222.109375 191.617188 235.570312 C 189.71875 245.15625 191.648438 255.640625 194.816406 264.777344 C 197.742188 273.398438 205.601562 279.972656 212 286.199219 C 223.378906 296.925781 236.527344 304.855469 249.191406 313.84375 C 233.441406 308.265625 218.589844 299.996094 203.335938 293.164062 C 191.984375 287.597656 179.835938 283.996094 167.121094 286.714844 C 155.546875 288.546875 145.757812 296.265625 140.824219 306.832031 C 135.292969 318.832031 135.214844 333.351562 139.601562 345.703125 C 145.984375 364.972656 160.367188 379.898438 178.113281 389.273438 C 209.234375 405.582031 242.957031 416.695312 277.871094 421.003906 C 273.480469 435.574219 273.078125 453.476562 280.199219 467.257812 C 285.824219 477.746094 294.90625 482.394531 304.695312 488.117188 C 306.0625 494.679688 304.761719 501.582031 306.835938 508.175781 C 310.5 521.363281 316.914062 536.320312 328.710938 544.167969 C 339.59375 551.324219 355.25 551.917969 367.898438 551.773438 C 372.625 551.96875 378.667969 549.75 383.039062 550.953125 C 392.957031 557.757812 403.582031 563.113281 415.511719 565.300781 C 430.347656 568.050781 447.0625 568.582031 461.496094 563.597656 C 469.390625 560.894531 477.332031 557.195312 483.9375 552.03125 C 487.519531 549.21875 490.992188 546.273438 494.753906 543.667969 C 492.9375 553.496094 490.207031 562.132812 493.839844 572.039062 C 496.554688 579.664062 502.886719 584.261719 509.269531 588.667969 C 524.941406 598.71875 541.769531 606.761719 559.453125 612.585938 C 568.644531 615.542969 578.179688 613.773438 586.859375 610.074219 C 600.167969 604.367188 611.964844 594.3125 621.691406 583.730469 C 643.261719 560.074219 657.921875 530.417969 666.296875 499.648438 C 672.195312 477.40625 674.765625 452.511719 669.316406 429.945312 C 668.769531 426.730469 665.910156 424.992188 663.59375 423.03125 Z M 663.59375 423.03125 " fill-opacity="1" fill-rule="nonzero"/><path fill="#ffe3d4" d="M 425.425781 409.410156 C 428.785156 398.875 431.566406 386.394531 428.113281 375.554688 C 426.117188 370.085938 422.921875 364.3125 416.183594 364.84375 C 407.8125 365.9375 398.277344 372.449219 396.847656 381.28125 C 394.695312 389.03125 392.828125 396.816406 392.15625 404.859375 C 403.617188 404.34375 414.640625 405.242188 425.425781 409.410156 Z M 425.425781 409.410156 " fill-opacity="1" fill-rule="nonzero"/><path fill="#ffe3d4" d="M 536.980469 452.753906 C 539.761719 444.453125 543.25 436.847656 544.921875 428.179688 C 549.164062 405.5 544.199219 382.632812 535.066406 361.804688 C 526.742188 345.285156 516.613281 326.164062 501.34375 315.117188 C 489.546875 306.367188 474.292969 300.285156 459.441406 301.011719 C 441.917969 301.203125 424.335938 310.613281 415.445312 325.890625 C 409.015625 336.777344 405.722656 350.242188 402.378906 362.367188 C 408.824219 359.570312 414.367188 356.480469 421.648438 358.089844 C 429.542969 359.570312 433.464844 367.402344 435.667969 374.332031 C 439.652344 388.550781 435.617188 404.730469 429.511719 417.773438 C 417.308594 412.5625 405.238281 409.632812 391.847656 410.324219 C 392.265625 411.453125 392.683594 412.59375 393.117188 413.71875 C 394.152344 413.886719 395.179688 414.074219 396.203125 414.285156 C 395.179688 414.074219 394.152344 413.886719 393.117188 413.71875 C 395.449219 419.71875 398.519531 425.136719 404.628906 427.9375 C 415.21875 432.519531 426.90625 430.1875 436.292969 423.964844 C 450.375 414.539062 461.402344 400.257812 467.6875 384.5625 C 471.832031 374.945312 473.328125 364.890625 476.671875 355.066406 C 477.570312 363.300781 477.699219 371.503906 475.691406 379.609375 C 470.917969 398.648438 468.234375 419.300781 471.285156 438.824219 C 472.539062 447.347656 475.386719 454.667969 474.550781 463.011719 C 470.226562 458.863281 465.835938 455.46875 462.894531 450.097656 C 458.507812 442.507812 457.753906 434.53125 457.09375 425.957031 C 451.226562 432.425781 445.039062 437.070312 437.113281 440.753906 C 430.972656 442.863281 424.65625 443.890625 418.257812 444.792969 C 417.308594 453.523438 415.542969 461.664062 411.734375 469.625 C 418.371094 480.222656 424.71875 493.796875 424.109375 506.535156 C 421.875 522.214844 411.667969 533.617188 399.902344 543.316406 C 414.433594 550.039062 430.667969 553.222656 446.644531 551.902344 C 461.480469 549.972656 476.769531 543.828125 487.265625 532.84375 C 496.105469 524.0625 502.484375 513.738281 509.027344 503.238281 C 509.238281 513.046875 506.808594 521.457031 502.839844 530.289062 C 513.6875 533.101562 523.171875 537.671875 532.398438 543.972656 C 541.800781 533.632812 549.246094 522.214844 556.300781 510.183594 C 569.402344 488.472656 580.140625 464.863281 586.3125 440.207031 C 575.316406 436.414062 565.253906 428.355469 556.109375 421.328125 C 551.734375 433.773438 545.851562 443.070312 536.980469 452.753906 Z M 462.566406 349.453125 C 463.21875 347.671875 463.90625 345.902344 464.664062 344.160156 C 463.90625 345.902344 463.21875 347.671875 462.566406 349.453125 Z M 432.964844 488.117188 C 431.964844 486.066406 431.144531 483.925781 430.503906 481.726562 C 430.179688 480.628906 429.902344 479.515625 429.671875 478.390625 C 429.902344 479.515625 430.179688 480.628906 430.503906 481.726562 C 431.144531 483.925781 431.964844 486.066406 432.964844 488.117188 C 433.761719 489.605469 434.636719 491.042969 435.585938 492.417969 C 434.636719 491.042969 433.761719 489.605469 432.964844 488.117188 Z M 477.21875 512.292969 C 476.515625 512.351562 475.8125 512.394531 475.109375 512.417969 C 475.8125 512.394531 476.515625 512.351562 477.21875 512.292969 C 478.097656 512.238281 478.964844 512.164062 479.824219 512.0625 C 478.964844 512.164062 478.097656 512.238281 477.21875 512.292969 Z M 478.832031 348.507812 C 478.238281 348 477.617188 347.558594 476.96875 347.167969 C 477.617188 347.554688 478.238281 348 478.832031 348.507812 C 479.429688 349.015625 479.996094 349.585938 480.535156 350.230469 C 479.996094 349.585938 479.429688 349.015625 478.832031 348.507812 Z M 487.101562 472.535156 C 486.464844 472.265625 485.851562 471.972656 485.257812 471.664062 C 485.851562 471.972656 486.464844 472.265625 487.101562 472.535156 C 487.453125 472.683594 487.800781 472.824219 488.15625 472.960938 C 487.800781 472.824219 487.453125 472.683594 487.101562 472.535156 Z M 487.101562 472.535156 " fill-opacity="1" fill-rule="nonzero"/><path fill="#ffe3d4" d="M 173.277344 366.773438 C 195.441406 380.605469 220.164062 390.59375 245.253906 397.75 C 266.503906 403.363281 288.253906 407.285156 310.066406 410.035156 C 317.765625 411.082031 325.351562 411.964844 332.859375 413.914062 C 320.964844 415.117188 309.488281 413.816406 298.410156 419.105469 C 299.195312 419.511719 299.972656 419.921875 300.742188 420.339844 C 299.972656 419.921875 299.195312 419.511719 298.410156 419.105469 C 294.054688 422.003906 290.183594 425.878906 289.054688 431.167969 C 288.058594 436.363281 288.429688 441.898438 288.671875 447.15625 C 289.523438 454.152344 290.808594 460.761719 295.902344 466.003906 C 302.460938 472.664062 311.832031 476.972656 320.59375 479.917969 C 331.1875 483.292969 342.277344 485.804688 353.304688 487.296875 C 358.976562 487.972656 364.925781 488.664062 370.4375 486.734375 C 376.628906 484.613281 382.382812 480.429688 387.636719 476.585938 C 392.878906 472.613281 398.875 468.015625 402.234375 462.273438 C 405.414062 456.933594 405.414062 450.066406 405.832031 444.035156 C 399.355469 441.574219 393.265625 439.964844 388.761719 434.273438 C 384.710938 429.914062 382.058594 423.078125 377.109375 419.832031 C 370.488281 418.527344 362.722656 419.476562 357.179688 423.578125 C 354.011719 425.8125 351.070312 428.402344 347.96875 430.734375 C 350.394531 425.71875 353.03125 420.972656 357.128906 417.097656 C 362.515625 411.855469 369.425781 409.265625 376.355469 406.773438 C 376.660156 402.976562 376.882812 399.179688 377.253906 395.386719 C 379.570312 380.234375 384.777344 365.277344 388.503906 350.367188 C 392.15625 336.25 396.894531 322.675781 405.09375 310.5 C 370.40625 295.800781 339.078125 275.875 308.632812 253.855469 C 291.871094 241.585938 274.847656 229.328125 257.039062 218.601562 C 251.683594 215.289062 245.882812 213.664062 239.597656 213.441406 C 230.53125 212.910156 221.675781 215.320312 216.050781 222.847656 C 205.859375 235.8125 207.964844 256.621094 217.609375 269.34375 C 223.539062 277.078125 232.121094 283.109375 239.933594 288.820312 C 259.851562 302.667969 280.683594 315.308594 302.496094 325.9375 C 322.183594 335.636719 342.632812 343.710938 362.5625 352.941406 C 365.550781 348.519531 368.734375 344.339844 372.625 340.65625 C 372.289062 355.179688 365.890625 366.417969 360.859375 379.527344 C 360.085938 379.945312 359.332031 380.363281 358.558594 380.78125 C 358.640625 374.703125 358.996094 368.769531 359.652344 362.738281 C 348.175781 359.648438 336.425781 357.976562 324.933594 354.96875 C 286.582031 345.558594 251.332031 330.910156 215.277344 315.132812 C 208.222656 312.125 201.535156 308.199219 194.347656 305.515625 C 186.921875 303.3125 178.339844 303.421875 171.203125 306.65625 C 159.386719 311.5625 152.941406 323.640625 153.8125 336.183594 C 154.230469 349.292969 162.378906 360.148438 173.277344 366.773438 Z M 317.089844 428.742188 C 316.265625 428.410156 315.453125 428.0625 314.652344 427.703125 C 315.453125 428.0625 316.265625 428.410156 317.089844 428.742188 C 317.976562 429.097656 318.867188 429.441406 319.761719 429.773438 C 318.867188 429.441406 317.976562 429.097656 317.089844 428.742188 Z M 226.996094 224.28125 C 226.914062 224.566406 226.84375 224.859375 226.785156 225.152344 C 226.84375 224.859375 226.914062 224.566406 226.996094 224.28125 C 227.097656 224.054688 227.210938 223.832031 227.332031 223.613281 C 227.210938 223.832031 227.097656 224.054688 226.996094 224.28125 Z M 328.421875 317.671875 C 325.675781 316.046875 322.921875 314.410156 320.164062 312.765625 C 322.921875 314.410156 325.675781 316.046875 328.421875 317.671875 C 330.648438 318.96875 332.890625 320.265625 335.15625 321.539062 C 332.890625 320.265625 330.648438 318.96875 328.421875 317.671875 Z M 356.199219 331.617188 C 354.984375 331.175781 353.78125 330.710938 352.585938 330.21875 C 353.78125 330.710938 354.984375 331.175781 356.199219 331.617188 C 357.378906 332.019531 358.546875 332.34375 359.703125 332.617188 C 358.546875 332.34375 357.378906 332.019531 356.199219 331.617188 Z M 344.039062 435.640625 C 346.558594 435.945312 349.085938 436.160156 351.617188 436.285156 C 349.085938 436.160156 346.558594 435.945312 344.039062 435.640625 C 342.359375 435.4375 340.6875 435.195312 339.019531 434.910156 C 340.6875 435.195312 342.359375 435.4375 344.039062 435.640625 Z M 202.03125 355.691406 C 205.171875 357.316406 208.339844 358.875 211.539062 360.375 C 208.339844 358.875 205.171875 357.316406 202.03125 355.691406 C 201.023438 355.15625 200.003906 354.597656 198.980469 354.019531 C 200.003906 354.597656 201.023438 355.15625 202.03125 355.691406 Z M 168.371094 313.722656 C 168.164062 314.328125 167.976562 314.933594 167.820312 315.542969 C 167.976562 314.933594 168.164062 314.328125 168.371094 313.722656 Z M 168.371094 313.722656 " fill-opacity="1" fill-rule="nonzero"/><path fill="#ffe3d4" d="M 403.101562 521.039062 C 407.007812 516.183594 411.332031 509.796875 411.667969 503.414062 C 411.460938 494.808594 407.828125 486.027344 403.648438 478.597656 C 395.078125 484.660156 387.460938 491.351562 378.074219 496.480469 C 366.019531 502.480469 354.542969 500.375 341.796875 498.605469 C 334.191406 497.414062 326.863281 495.113281 319.292969 493.796875 C 320.175781 501.339844 322.136719 508.175781 325.238281 515.089844 C 328.308594 522.277344 331.957031 529.964844 339.480469 533.390625 C 347.484375 536.929688 357.691406 536.769531 366.308594 536.785156 C 380.242188 536.816406 394.035156 531.992188 403.101562 521.039062 Z M 376.304688 511.921875 C 376.027344 512.265625 375.734375 512.597656 375.429688 512.917969 C 375.734375 512.597656 376.027344 512.265625 376.304688 511.921875 C 376.542969 511.640625 376.761719 511.355469 376.957031 511.066406 C 376.761719 511.355469 376.542969 511.640625 376.304688 511.921875 Z M 378.769531 505.496094 C 378.8125 504.847656 378.816406 504.1875 378.792969 503.523438 C 378.816406 504.1875 378.8125 504.847656 378.769531 505.496094 Z M 378.769531 505.496094 " fill-opacity="1" fill-rule="nonzero"/><path fill="#6d6d6d" d="M 650.511719 432.90625 C 632.714844 422.628906 614.9375 412.367188 596.742188 402.816406 C 595.441406 402.011719 594.125 401.625 592.773438 401.65625 C 584.140625 403.054688 577.019531 407.832031 571.203125 414.167969 C 577.277344 418.0625 583.449219 421.90625 589.785156 425.378906 C 592.582031 419.652344 592.273438 414.105469 592.179688 407.929688 C 595.394531 410.953125 598.414062 413.558594 599.28125 418.175781 C 601.757812 429.320312 599.699219 442.042969 597.03125 453.027344 C 592.902344 469.496094 586.535156 485.449219 578.707031 500.488281 C 575.460938 506.902344 570.816406 513.09375 569.546875 520.125 C 567.585938 529.46875 568.789062 540.386719 573.035156 548.976562 C 579.433594 561.152344 595.167969 564.722656 607.253906 559.527344 C 620.226562 554.027344 628.8125 541.964844 635.738281 530.222656 C 642.683594 519.417969 646.972656 507.628906 650.800781 495.40625 C 655.976562 478.292969 658.613281 460.890625 656.023438 443.039062 C 655.011719 439.273438 654.433594 434.738281 650.511719 432.90625 Z M 613.058594 543.027344 C 604.203125 549.136719 591.566406 547.125 585.605469 537.992188 C 577.648438 526.074219 583.835938 509.316406 596.824219 504.121094 C 605.261719 500.566406 615.308594 503.800781 620.164062 511.535156 C 626.433594 521.84375 623.136719 536.351562 613.058594 543.027344 Z M 613.058594 543.027344 " fill-opacity="1" fill-rule="nonzero"/><path fill="#ffffff" d="M 600.101562 510.601562 C 592.628906 512.597656 588.964844 521.136719 590.683594 528.308594 C 591.9375 533.777344 596.566406 538.378906 602.464844 537.78125 C 611.980469 536.707031 617.125 525.335938 613.136719 517.003906 C 610.886719 511.855469 605.550781 509.269531 600.101562 510.601562 Z M 600.101562 510.601562 " fill-opacity="1" fill-rule="nonzero"/><path fill="#6d6d6d" d="M 569.464844 557.371094 C 562.859375 549.296875 561.636719 539.132812 560.996094 529.066406 C 552.347656 540.277344 541.929688 551.96875 529.585938 559.125 C 524.539062 562.164062 519.027344 563.371094 513.191406 563.707031 C 516.40625 560.460938 519.734375 557.324219 522.882812 554.011719 C 518.71875 552 514.574219 549.988281 510.425781 547.964844 C 507.5 554.507812 505.863281 560.523438 505.445312 567.746094 C 520.136719 579.695312 537.6875 588.539062 555.113281 595.730469 C 559.742188 597.355469 563.375 599.832031 568.453125 598.398438 C 586.664062 594.394531 602.304688 578.84375 614.039062 565.109375 C 599.089844 571.652344 580.316406 570.882812 569.464844 557.371094 Z M 569.464844 557.371094 " fill-opacity="1" fill-rule="nonzero"/><path fill="#e5b1a3" d="M 239.933594 288.820312 C 259.851562 302.667969 280.683594 315.308594 302.496094 325.9375 C 322.183594 335.636719 342.632812 343.710938 362.5625 352.941406 C 365.550781 348.519531 368.734375 344.339844 372.625 340.65625 C 372.289062 355.179688 365.890625 366.417969 360.859375 379.527344 C 361.066406 382.324219 361.375 385.09375 361.695312 387.875 C 368.476562 377.902344 373.027344 367.304688 378.300781 356.289062 C 382.109375 348.308594 384.601562 339.914062 386.835938 331.40625 C 376.289062 333.273438 366.695312 335.203125 356.199219 331.617188 C 346.503906 328.09375 337.328125 322.851562 328.421875 317.671875 C 305 303.792969 280.875 289.351562 259.578125 272.382812 C 248.871094 263.796875 238.488281 254.613281 231.320312 242.757812 C 228.167969 237.5 225.273438 230.4375 226.996094 224.28125 C 229.199219 219.453125 235.335938 216.253906 239.597656 213.441406 C 230.53125 212.910156 221.675781 215.320312 216.050781 222.847656 C 205.859375 235.8125 207.964844 256.621094 217.609375 269.34375 C 223.539062 277.078125 232.121094 283.109375 239.933594 288.820312 Z M 239.933594 288.820312 " fill-opacity="1" fill-rule="nonzero"/><path fill="#e5b1a3" d="M 173.277344 366.773438 C 195.441406 380.605469 220.164062 390.59375 245.253906 397.75 C 266.503906 403.363281 288.253906 407.285156 310.066406 410.035156 C 317.765625 411.082031 325.351562 411.964844 332.859375 413.914062 C 320.964844 415.117188 309.488281 413.816406 298.410156 419.105469 C 304.679688 422.339844 310.5 426.101562 317.089844 428.742188 C 329.628906 433.773438 343.175781 436.394531 356.679688 436.414062 C 359.8125 436.574219 363.480469 436.285156 366.421875 437.488281 C 372.65625 440.898438 376.066406 448.84375 373.074219 455.550781 C 370.085938 461.792969 363.734375 465.378906 357.304688 467.164062 C 346.007812 470.234375 333.695312 470.007812 322.441406 466.824219 C 309.359375 463.367188 298.796875 455.855469 288.671875 447.15625 C 289.523438 454.152344 290.808594 460.761719 295.902344 466.003906 C 302.460938 472.664062 311.832031 476.972656 320.59375 479.917969 C 331.1875 483.292969 342.277344 485.804688 353.304688 487.296875 C 358.976562 487.972656 364.925781 488.664062 370.4375 486.734375 C 376.628906 484.613281 382.382812 480.429688 387.636719 476.585938 C 392.878906 472.613281 398.875 468.015625 402.234375 462.273438 C 405.414062 456.933594 405.414062 450.066406 405.832031 444.035156 C 399.355469 441.574219 393.265625 439.964844 388.761719 434.273438 C 384.710938 429.914062 382.058594 423.078125 377.109375 419.832031 C 370.488281 418.527344 362.722656 419.476562 357.179688 423.578125 C 354.011719 425.8125 351.070312 428.402344 347.96875 430.734375 C 350.394531 425.71875 353.03125 420.972656 357.128906 417.097656 C 362.515625 411.855469 369.425781 409.265625 376.355469 406.773438 C 376.660156 402.976562 376.882812 399.179688 377.253906 395.386719 C 376.882812 397.539062 376.484375 399.695312 376.066406 401.851562 C 345.910156 399.277344 316.15625 394.546875 286.933594 386.539062 C 257.9375 378.675781 228.8125 369.554688 202.03125 355.691406 C 189.109375 348.824219 174.660156 338.582031 168.535156 324.828125 C 165.480469 318.089844 168.792969 312.863281 171.203125 306.65625 C 159.386719 311.5625 152.941406 323.640625 153.8125 336.183594 C 154.230469 349.292969 162.378906 360.148438 173.277344 366.773438 Z M 173.277344 366.773438 " fill-opacity="1" fill-rule="nonzero"/><path fill="#e5b1a3" d="M 404.628906 427.9375 C 415.222656 432.519531 426.90625 430.1875 436.292969 423.964844 C 450.375 414.539062 461.402344 400.257812 467.6875 384.5625 C 471.832031 374.945312 473.328125 364.890625 476.671875 355.066406 C 477.570312 363.300781 477.699219 371.503906 475.691406 379.609375 C 470.917969 398.648438 468.234375 419.300781 471.285156 438.824219 C 472.539062 447.347656 475.386719 454.667969 474.550781 463.011719 C 478.390625 466.824219 482.007812 470.378906 487.101562 472.535156 C 496.152344 476.410156 506.585938 474.980469 515.265625 470.828125 C 524.058594 466.664062 530.855469 460.183594 536.980469 452.753906 C 539.761719 444.453125 543.25 436.847656 544.921875 428.179688 C 538.074219 433.984375 531.546875 439.019531 522.046875 438.777344 C 510.507812 438.953125 501.410156 431.3125 496.441406 421.390625 C 489.175781 406.933594 490.269531 390.398438 488.117188 374.78125 C 487.039062 367.046875 485.753906 357.863281 481.316406 351.253906 C 477.265625 345.496094 471.175781 344.707031 464.664062 344.160156 C 460.628906 353.457031 458.492188 363.429688 454.136719 372.628906 C 451.015625 379.945312 446.582031 386.394531 442.644531 393.246094 C 438.382812 400.5625 439.25 411.546875 432.980469 417.386719 C 428.5625 421.710938 422.824219 421.777344 417.183594 420.199219 C 409.175781 417.820312 401.398438 415.054688 393.117188 413.71875 C 395.449219 419.71875 398.519531 425.136719 404.628906 427.9375 Z M 404.628906 427.9375 " fill-opacity="1" fill-rule="nonzero"/><path fill="#e5b1a3" d="M 527.851562 513.785156 C 518.914062 510.070312 515.425781 502.160156 511.808594 493.84375 C 502.792969 504.332031 491.28125 511.453125 477.21875 512.292969 C 459.214844 513.820312 441.4375 503.992188 432.964844 488.117188 C 427.742188 477.390625 427.40625 464.269531 431.761719 453.1875 C 433.382812 448.988281 435.34375 444.902344 437.113281 440.753906 C 430.972656 442.863281 424.65625 443.890625 418.257812 444.792969 C 417.308594 453.523438 415.542969 461.664062 411.734375 469.625 C 418.371094 480.222656 424.71875 493.796875 424.109375 506.535156 C 421.875 522.214844 411.667969 533.617188 399.902344 543.316406 C 414.433594 550.039062 430.667969 553.222656 446.644531 551.902344 C 461.480469 549.972656 476.769531 543.828125 487.265625 532.84375 C 496.105469 524.0625 502.484375 513.738281 509.027344 503.238281 C 509.238281 513.046875 506.808594 521.457031 502.839844 530.289062 C 513.6875 533.101562 523.171875 537.671875 532.398438 543.972656 C 541.800781 533.632812 549.246094 522.214844 556.300781 510.183594 C 546.867188 513.753906 537.992188 517.792969 527.851562 513.785156 Z M 527.851562 513.785156 " fill-opacity="1" fill-rule="nonzero"/><path fill="#e5b1a3" d="M 403.101562 521.039062 C 407.007812 516.183594 411.332031 509.796875 411.667969 503.414062 C 411.460938 494.808594 407.828125 486.027344 403.648438 478.597656 C 395.078125 484.660156 387.460938 491.351562 378.074219 496.480469 C 378.570312 501.820312 380.117188 507.417969 376.304688 511.921875 C 370.328125 519.253906 359.074219 521.152344 350.152344 521.007812 C 341.167969 521.121094 333.550781 517.953125 325.238281 515.089844 C 328.308594 522.277344 331.957031 529.964844 339.480469 533.390625 C 347.484375 536.929688 357.691406 536.769531 366.308594 536.785156 C 380.242188 536.816406 394.035156 531.992188 403.101562 521.039062 Z M 403.101562 521.039062 " fill-opacity="1" fill-rule="nonzero"/></svg>